<?xml version="1.0" encoding="UTF-8" standalone="no"?>
<svg
   width="514.24261"
   height="64.5"
   viewBox="0 0 514.2426 64.499999"
   version="1.1"
   id="svg62"
   sodipodi:docname="metaclonotypist_text.svg"
   inkscape:version="1.2.2 (b0a8486541, 2022-12-01)"
   xmlns:inkscape="http://www.inkscape.org/namespaces/inkscape"
   xmlns:sodipodi="http://sodipodi.sourceforge.net/DTD/sodipodi-0.dtd"
   xmlns="http://www.w3.org/2000/svg"
   xmlns:svg="http://www.w3.org/2000/svg">
  <defs
     id="defs66" />
  <sodipodi:namedview
     id="namedview64"
     pagecolor="#ffffff"
     bordercolor="#cccccc"
     borderopacity="1"
     inkscape:showpageshadow="0"
     inkscape:pageopacity="1"
     inkscape:pagecheckerboard="0"
     inkscape:deskcolor="#d1d1d1"
     showgrid="false"
     inkscape:zoom="1.6114368"
     inkscape:cx="353.41132"
     inkscape:cy="42.198366"
     inkscape:window-width="1920"
     inkscape:window-height="1011"
     inkscape:window-x="0"
     inkscape:window-y="32"
     inkscape:window-maximized="1"
     inkscape:current-layer="svg62" />
  <!-- Background Cells with Nucleus (repositioned) -->
  <!-- Edges -->
  <!-- Foreground Nodes -->
  <!-- Inner Dots in Foreground -->
  <!-- Center Node -->
  <g
     id="g442"
     transform="matrix(0.5,0,0,0.5,-13,-18.5)">
    <g
       id="g393"
       transform="matrix(1.1062707,0,0,1.1062707,12.856916,57.598813)">
      <circle
         cx="30"
         cy="30"
         r="8"
         fill="#f8e5c2"
         id="circle2" />
      <circle
         cx="28"
         cy="32"
         r="2.5"
         fill="#d2bc9a"
         id="circle4" />
    </g>
    <g
       id="g381"
       transform="matrix(1.0728668,0,0,1.0728668,12.899323,-37.844695)">
      <circle
         cx="80"
         cy="180"
         r="10"
         fill="#f1d6c7"
         id="circle6" />
      <circle
         cx="76"
         cy="182"
         r="3"
         fill="#d9a383"
         id="circle8" />
    </g>
    <g
       id="g334"
       transform="matrix(1.4765442,0,0,1.4765442,-84.058885,-7.2401362)">
      <g
         id="g329">
        <circle
           cx="184"
           cy="50"
           r="7"
           fill="#eadcf2"
           id="circle10" />
        <circle
           cx="182"
           cy="50"
           r="2"
           fill="#b9a2ce"
           id="circle12" />
      </g>
    </g>
    <g
       id="g338"
       transform="matrix(1.2287589,0,0,1.2287589,-37.934763,-45.915143)">
      <circle
         cx="172.82857"
         cy="155.25714"
         r="7"
         fill="#d3f4ec"
         id="circle14" />
      <circle
         cx="170.62857"
         cy="157.37143"
         r="2"
         fill="#94cabd"
         id="circle16" />
    </g>
    <g
       id="g385"
       transform="matrix(1.4385288,0,0,1.4385288,-49.533759,-60.050616)">
      <g
         id="g389"
         transform="translate(49.318631,-120.54909)">
        <circle
           cx="100"
           cy="230"
           r="9"
           fill="#ffefb0"
           id="circle18" />
        <circle
           cx="100"
           cy="230"
           r="3"
           fill="#d9c672"
           id="circle20" />
      </g>
    </g>
    <g
       id="g397"
       transform="matrix(1.1454876,0,0,1.1454876,-1.4917033,-14.585591)">
      <circle
         cx="30"
         cy="120"
         r="6"
         fill="#f8e5c2"
         id="circle22" />
      <circle
         cx="30"
         cy="120"
         r="2"
         fill="#d2bc9a"
         id="circle24" />
    </g>
    <g
       id="g431"
       transform="matrix(1.5849376,0,0,1.5849376,-50.719722,-13.014086)">
      <circle
         cx="92.709633"
         cy="43.958607"
         r="6"
         fill="#f1d6c7"
         id="circle26" />
      <circle
         cx="92.709633"
         cy="43.958607"
         r="2"
         fill="#d9a383"
         id="circle28" />
    </g>
    <line
       x1="100.09524"
       y1="100.0918"
       x2="47.595406"
       y2="52.234241"
       stroke="#1b5e53"
       stroke-width="4.72961"
       id="line32" />
    <line
       x1="99.953087"
       y1="100.04691"
       x2="152.04692"
       y2="50.859077"
       stroke="#1b5e53"
       stroke-width="4.86731"
       id="line34" />
    <line
       x1="99.223907"
       y1="99.434738"
       x2="131.21552"
       y2="126.05997"
       stroke="#1b5e53"
       stroke-width="5"
       id="line36" />
    <line
       x1="100"
       y1="100"
       x2="54"
       y2="142"
       stroke="#1b5e53"
       stroke-width="5"
       id="line38" />
    <g
       id="g359"
       transform="translate(-4,4)">
      <circle
         cx="48"
         cy="46"
         r="13"
         fill="#2a9d8f"
         id="circle40" />
      <circle
         cx="42"
         cy="46"
         r="4"
         fill="#1b5e53"
         id="circle48" />
    </g>
    <g
       id="g351"
       transform="translate(0,4)">
      <circle
         cx="152"
         cy="48"
         r="13"
         fill="#2a9d8f"
         id="circle42" />
      <circle
         cx="154"
         cy="50"
         r="4"
         fill="#1b5e53"
         id="circle50" />
    </g>
    <g
       id="g402"
       transform="translate(-2,-24)">
      <g
         id="g355">
        <circle
           cx="142"
           cy="158"
           r="13"
           fill="#2a9d8f"
           id="circle44" />
        <circle
           cx="140"
           cy="156"
           r="4"
           fill="#1b5e53"
           id="circle52" />
      </g>
    </g>
    <g
       id="g363">
      <circle
         cx="54"
         cy="142"
         r="13"
         fill="#2a9d8f"
         id="circle46" />
      <circle
         cx="56"
         cy="146"
         r="4"
         fill="#1b5e53"
         id="circle54" />
    </g>
    <circle
       cx="100"
       cy="100"
       r="22"
       fill="#2a9d8f"
       id="circle56" />
    <circle
       cx="100"
       cy="108"
       r="11"
       fill="#1b5e53"
       id="circle58" />
  </g>
  <!-- Title Text -->
  <g
     aria-label="Metaclonotypist"
     id="text60"
     style="font-weight:bold;font-size:48px;font-family:'Special Elite';fill:#2a9d8f">
    <path
       d="m 138.93794,44.749352 q -0.14062,0.492187 -0.49218,0.796875 -0.32813,0.28125 -0.77344,0.445312 -0.44531,0.164063 -0.96094,0.234375 -0.49219,0.04687 -0.9375,0.04687 -0.67969,0 -1.33594,-0.07031 -0.65625,-0.09375 -1.3125,-0.210938 -0.35156,-0.04687 -0.89062,-0.07031 -0.51563,-0.02344 -1.03125,-0.117188 -0.51563,-0.09375 -0.89063,-0.328125 -0.35156,-0.257812 -0.35156,-0.773437 0,-0.585938 0.23438,-0.84375 0.23437,-0.28125 0.58593,-0.375 0.35157,-0.117188 0.77344,-0.140625 0.42188,-0.02344 0.77344,-0.140625 0.35156,-0.140625 0.58594,-0.421875 0.23437,-0.304688 0.23437,-0.960938 0,-0.421875 -0.0937,-0.84375 -0.0703,-0.421875 -0.16406,-0.820312 -0.0937,-0.421875 -0.1875,-0.820313 -0.0703,-0.421875 -0.0703,-0.84375 0,-0.28125 0.16406,-0.585937 0.1875,-0.328125 0.1875,-0.726563 0,-0.726562 -0.11719,-1.359375 -0.11719,-0.632812 -0.375,-1.3125 -0.16406,-0.445312 -0.16406,-0.820312 0,-0.351563 0.14062,-0.679688 0.16407,-0.328125 0.16407,-0.703125 0,-0.492187 -0.16407,-0.9375 -0.16406,-0.46875 -0.16406,-0.960937 0,-0.65625 0.14063,-1.289063 0.14062,-0.632812 0.14062,-1.289062 0,-0.445313 -0.0937,-0.984375 -0.0937,-0.539063 -0.25781,-1.078125 -0.14063,-0.5625 -0.30469,-1.078125 -0.16406,-0.539063 -0.30469,-0.960938 -0.46875,0.210938 -0.77343,0.5625 -0.28125,0.328125 -0.46875,0.75 -0.16407,0.421875 -0.28125,0.890625 -0.0937,0.46875 -0.16407,0.914063 -0.16406,0.914062 -0.51562,1.78125 -0.32813,0.867187 -0.46875,1.78125 -0.1875,1.125 -0.23438,2.226562 -0.0234,1.101563 -0.11718,2.203125 -0.0703,1.078125 -0.25782,2.15625 -0.1875,1.078125 -0.67968,2.15625 -0.1875,0.398438 -0.23438,0.75 -0.0469,0.351563 -0.0469,0.726563 0,0.328125 0.0234,0.65625 0.0234,0.328125 0.0234,0.679687 0,0.726563 -0.16406,1.101563 -0.14063,0.351562 -0.32813,0.585937 -0.1875,0.234375 -0.375,0.46875 -0.1875,0.210938 -0.28125,0.65625 -0.0703,0.375 -0.39843,0.585938 -0.30469,0.1875 -0.72657,0.328125 -0.42187,0.117187 -0.84375,0.210937 -0.42187,0.07031 -0.70312,0.210938 -0.25781,-0.539063 -0.63281,-1.007813 -0.35157,-0.46875 -0.65625,-0.984375 -0.32813,-0.539062 -0.42188,-1.148437 -0.0703,-0.609375 -0.28125,-1.21875 -0.0937,-0.28125 -0.23437,-0.492188 -0.11719,-0.210937 -0.23438,-0.421875 -0.0937,-0.234375 -0.1875,-0.46875 -0.0703,-0.234375 -0.0703,-0.5625 0,-0.257812 0.0234,-0.46875 0.0234,-0.234375 0.0234,-0.492187 0,-0.5625 -0.1875,-1.195313 -0.375,-1.195312 -0.65625,-2.34375 -0.28125,-1.148437 -0.39843,-2.414062 -0.11719,-1.148438 -0.1875,-2.320313 -0.0703,-1.171875 -0.49219,-2.273437 -0.21094,-0.539063 -0.49219,-1.03125 -0.28125,-0.492188 -0.46875,-1.03125 -0.0469,-0.117188 -0.0937,-0.375 -0.0234,-0.257813 -0.0937,-0.539063 -0.0469,-0.28125 -0.14062,-0.492187 -0.0703,-0.234375 -0.16407,-0.257813 -0.11718,0.09375 -0.16406,0.28125 -0.16406,0.421875 -0.25781,0.585938 -0.0937,0.164062 -0.1875,0.28125 -0.0703,0.09375 -0.1875,0.210937 -0.11719,0.117188 -0.32813,0.421875 -0.1875,0.257813 -0.1875,0.5625 0,0.539063 0.23438,1.054688 0.23437,0.492187 0.23437,1.03125 0,0.257812 -0.0937,0.539062 -0.0937,0.257813 -0.0937,0.515625 0,0.679688 0.1875,1.359375 0.21094,0.65625 0.21094,1.335938 0,0.539062 -0.16406,1.054687 -0.16406,0.492188 -0.16406,1.03125 0,0.5625 0.11718,1.125 0.14063,0.539063 0.14063,1.101563 0,0.46875 -0.0937,0.914062 -0.0937,0.421875 -0.21094,0.867188 -0.0937,0.445312 -0.1875,0.890625 -0.0937,0.445312 -0.0937,0.914062 0,0.960938 0.375,1.359375 0.375,0.398438 0.89063,0.609375 0.53906,0.210938 1.10156,0.421875 0.5625,0.1875 0.96094,0.726563 -0.21094,0.351562 -0.32813,0.773437 -0.0937,0.398438 -0.30469,0.75 -0.1875,0.304688 -0.39843,0.421875 -0.1875,0.117188 -0.39844,0.164063 -0.1875,0.02344 -0.42188,0.07031 -0.23437,0.02344 -0.49218,0.164063 -0.25782,0.140625 -0.375,0.28125 -0.0937,0.117187 -0.1875,0.210937 -0.0937,0.117188 -0.28125,0.164063 -0.16407,0.07031 -0.53907,0.07031 -0.39843,0 -0.79687,-0.09375 -0.39844,-0.09375 -0.79688,-0.09375 -0.42187,0 -0.82031,0.117188 -0.39844,0.140625 -0.82031,0.140625 -0.49219,0 -0.98438,-0.1875 -0.49218,-0.164063 -0.89062,-0.46875 -0.375,-0.328125 -0.63281,-0.75 -0.23438,-0.445313 -0.23438,-0.984375 0,-0.796875 0.32813,-1.21875 0.32812,-0.421875 0.82031,-0.65625 0.51562,-0.257813 1.10156,-0.421875 0.58594,-0.1875 1.10156,-0.46875 0.11719,-0.398438 0.14063,-0.796875 0.0234,-0.421875 0.0234,-0.84375 0,-0.679688 -0.0703,-1.359375 -0.0469,-0.679688 -0.0469,-1.359375 0,-0.445313 0.0937,-0.867188 0.0937,-0.445312 0.0937,-0.914062 0,-0.234375 -0.0703,-0.445313 -0.32813,-0.867187 -0.42188,-1.664062 -0.0703,-0.796875 -0.0703,-1.734375 0,-0.398438 0.0937,-0.773438 0.11719,-0.375 0.23437,-0.75 0.14063,-0.375 0.23438,-0.75 0.11719,-0.375 0.11719,-0.773437 0,-0.726563 -0.0937,-1.429688 -0.0937,-0.703125 -0.0937,-1.429687 0,-0.46875 0.0937,-0.914063 0.0937,-0.445312 0.0937,-0.914062 0,-0.46875 -0.1875,-0.890625 -0.1875,-0.445313 -0.1875,-0.914063 0,-0.328125 0.16406,-0.585937 0.1875,-0.257813 0.1875,-0.585938 0,-0.1875 -0.1875,-0.375 -0.1875,-0.1875 -0.1875,-0.609375 0,-0.351562 0.0234,-0.703125 0.0469,-0.351562 0.0469,-0.703125 0,-0.703125 -0.23437,-1.101562 -0.23438,-0.421875 -0.58594,-0.632813 -0.32813,-0.234375 -0.72656,-0.328125 -0.39844,-0.09375 -0.75,-0.1875 -0.32813,-0.117187 -0.5625,-0.257812 -0.23438,-0.140625 -0.23438,-0.46875 0,-0.304688 0.32813,-0.609375 0.35156,-0.328125 0.86718,-0.632813 0.51563,-0.304687 1.125,-0.585937 0.60938,-0.304688 1.125,-0.539063 0.51563,-0.234375 0.86719,-0.398437 0.375,-0.164063 0.42188,-0.234375 0.0937,0.164062 0.25781,0.234375 0.16406,0.04687 0.35156,0.07031 0.21094,0 0.39844,0 0.21094,0 0.35156,0.04687 0.23438,0.07031 0.35156,0.1875 0.11719,0.117188 0.21094,0.234375 0.11719,0.117188 0.30469,0.234375 0.1875,0.117188 0.5625,0.210938 0.89062,0.234375 1.33594,0.679687 0.46875,0.421875 0.46875,1.40625 0,0.257813 -0.0469,0.515625 -0.0469,0.234375 -0.0469,0.492188 l 0.58593,1.664062 q 0.0703,0.257813 0.14063,0.539063 0.0937,0.257812 0.14062,0.515625 0.25782,0.210937 0.39844,0.632812 0.14063,0.421875 0.1875,0.914063 0.0703,0.46875 0.0937,0.9375 0.0234,0.46875 0.0703,0.796875 0.0703,0.539062 0.23438,1.054687 0.1875,0.492188 0.1875,1.03125 0,0.328125 -0.11719,0.65625 -0.0937,0.328125 -0.0937,0.679688 0,0.609375 0.16406,1.195312 0.16407,0.585938 0.375,1.171875 0.21094,0.5625 0.375,1.148438 0.1875,0.585937 0.21094,1.195312 0,0.28125 0.0469,0.867188 0.0703,0.585937 0.16406,1.3125 0.11719,0.703125 0.25781,1.476562 0.16406,0.75 0.375,1.382813 0.23438,0.632812 0.51563,1.03125 0.30468,0.398437 0.65625,0.398437 0.42187,0 0.53906,-0.234375 0.11719,-0.257812 0.14062,-0.585937 0.0234,-0.328125 0.0703,-0.65625 0.0469,-0.328125 0.32812,-0.46875 0.23438,-0.140625 0.39844,-0.539063 0.1875,-0.421875 0.30469,-0.914062 0.11718,-0.515625 0.16406,-0.984375 0.0703,-0.492188 0.0937,-0.75 0.0703,-1.21875 0.0703,-2.507813 0,-1.289062 0.0469,-2.578125 0.0469,-1.3125 0.21093,-2.554687 0.16407,-1.265625 0.53907,-2.4375 0.0703,-0.1875 0.1875,-0.351563 0.11718,-0.164062 0.23437,-0.328125 0.11719,-0.1875 0.1875,-0.351562 0.0937,-0.1875 0.0937,-0.398438 0,-0.140625 -0.0703,-0.234375 -0.0703,-0.117187 -0.16406,-0.1875 -0.0703,-0.07031 -0.14063,-0.140625 -0.0703,-0.07031 -0.0703,-0.164062 0,-0.117188 0.0703,-0.164063 0.0703,-0.07031 0.14063,-0.140625 0.32812,-0.375 0.39843,-1.03125 0.0937,-0.679687 0.11719,-1.429687 0.0234,-0.773438 0.0469,-1.5 0.0469,-0.75 0.30468,-1.265625 0.28125,0.117187 0.53907,0.117187 0.32812,0 0.63281,-0.117187 0.30469,-0.140625 0.58594,-0.28125 0.30468,-0.140625 0.60937,-0.257813 0.32813,-0.140625 0.67969,-0.140625 0.11719,0 0.25781,0.02344 0.14063,0 0.25781,0 0.46875,0 0.84375,-0.210938 0.375,-0.210937 0.77344,-0.210937 0.16406,0 0.23438,0.07031 0.0703,0.07031 0.0937,0.140625 0.0469,0.07031 0.0937,0.140625 0.0469,0.07031 0.14062,0.07031 0.39844,0 0.79688,-0.09375 0.42187,-0.09375 0.82031,-0.09375 0.25781,0 0.42187,0.07031 0.16407,0.04687 0.32813,0.28125 0.1875,0.28125 0.51562,0.375 0.32813,0.07031 0.65625,0.164063 0.32813,0.07031 0.5625,0.234375 0.25782,0.140625 0.25782,0.539062 0,0.820313 -0.39844,1.125 -0.39844,0.304688 -0.9375,0.421875 -0.51563,0.09375 -1.03125,0.1875 -0.49219,0.07031 -0.70313,0.445313 -0.23437,0.398437 -0.28125,0.867187 -0.0469,0.46875 -0.23437,0.914063 -0.0703,0.1875 -0.11719,0.351562 -0.0469,0.164063 -0.0469,0.351563 0,0.375 0.0937,0.726562 0.0937,0.351563 0.21093,0.703125 0.14063,0.328125 0.25782,0.679688 0.11718,0.351562 0.16406,0.703125 0.14062,1.265625 0.14062,2.53125 0,0.75 -0.0937,1.5 -0.0703,0.75 -0.16406,1.5 -0.0937,0.75 -0.1875,1.5 -0.0703,0.726562 -0.0703,1.453125 0,0.5625 -0.35156,0.914062 l -0.0234,0.539063 q 0,0.679687 0.0937,1.359375 0.0937,0.679687 0.21094,1.359375 0.11718,0.65625 0.21093,1.335937 0.0937,0.679688 0.0937,1.359375 0,0.914063 -0.25781,1.804688 -0.25781,0.890625 -0.25781,1.804687 0,0.679688 0.28125,1.078125 0.28125,0.398438 1.03125,0.398438 0.32812,0 0.65625,-0.02344 0.35156,-0.04687 0.67969,-0.04687 0.32812,0 0.67968,0.07031 0.35157,0.07031 0.60938,0.328125 0,0.09375 0.0234,0.28125 0.0469,0.1875 0.0469,0.375 0.0234,0.164062 0,0.28125 -0.0234,0.117187 -0.11719,0.04687 z M 117.28169,21.639977 q 0,-0.445313 -0.14062,-0.890625 -0.11719,-0.46875 -0.53906,-0.703125 0,0.210937 -0.0234,0.445312 0,0.210938 0,0.421875 0,0.375 0.0937,0.75 0.11719,0.351563 0.58594,0.375 0.0234,-0.09375 0.0234,-0.1875 0,-0.09375 0,-0.210937 z m 18.28125,21.726562 q 0,-0.140625 -0.1875,-0.234375 -0.1875,-0.09375 -0.30468,-0.09375 -0.0703,0 -0.21094,0.02344 -0.11719,0.02344 -0.25781,0.07031 -0.11719,0.04687 -0.21094,0.117188 -0.0937,0.07031 -0.0937,0.164062 0,0.140625 0.21094,0.1875 0.23437,0.02344 0.35156,0.02344 0.11719,0 0.39844,-0.04687 0.30468,-0.04687 0.30468,-0.210938 z m -10.28906,-3.28125 q -0.0937,0 -0.1875,0 -0.0703,-0.02344 -0.16406,-0.02344 -0.39844,0 -0.70313,0.164062 -0.28125,0.140625 -0.28125,0.609375 v 0.257813 q 0.0937,0 0.16407,0.02344 0.0937,0 0.1875,0 0.39843,0 0.70312,-0.140625 0.30469,-0.164062 0.30469,-0.632812 z"
       id="path393" />
    <path
       d="m 165.18794,41.538414 q 0,0.632813 -0.21093,1.078125 -0.1875,0.445313 -0.51563,0.796875 -0.30469,0.351563 -0.72656,0.65625 -0.39844,0.304688 -0.82031,0.65625 -0.32813,0.28125 -0.58594,0.421875 -0.25781,0.140625 -0.51563,0.234375 -0.23437,0.09375 -0.51562,0.1875 -0.25781,0.09375 -0.60938,0.257813 -0.46875,0.234375 -0.79687,0.445312 -0.30469,0.1875 -0.63281,0.351563 -0.30469,0.164062 -0.67969,0.257812 -0.375,0.117188 -0.9375,0.1875 -0.9375,0.117188 -1.89844,0.28125 -0.9375,0.164063 -1.875,0.164063 -0.1875,0 -0.39844,-0.09375 -0.1875,-0.07031 -0.44531,-0.164063 -0.25781,-0.07031 -0.58594,-0.164062 -0.30468,-0.07031 -0.75,-0.07031 -0.46875,0 -0.75,-0.140625 -0.28125,-0.140625 -0.51562,-0.328125 -0.21094,-0.1875 -0.44531,-0.398437 -0.23438,-0.234375 -0.60938,-0.398438 -1.40625,-0.632812 -2.39062,-1.523437 -0.98438,-0.890625 -1.6875,-1.992188 -0.70313,-1.101562 -1.17188,-2.390625 -0.46875,-1.289062 -0.79687,-2.695312 -0.25782,-0.984375 -0.25782,-1.96875 0,-1.289063 0.60938,-2.390625 -0.23438,-0.65625 -0.23438,-1.265625 0,-0.445313 0.25782,-1.3125 0.25781,-0.890625 0.65625,-1.78125 0.42187,-0.890625 0.89062,-1.59375 0.49219,-0.726563 0.91406,-0.890625 0.32813,-0.117188 0.44532,-0.1875 0.14062,-0.09375 0.14062,-0.46875 0,-0.28125 0.21094,-0.46875 0.23437,-0.1875 0.53906,-0.304688 0.32813,-0.117187 0.63281,-0.210937 0.32813,-0.09375 0.53907,-0.1875 0.86718,-0.421875 1.64062,-0.703125 0.79688,-0.304688 1.57031,-0.492188 0.79688,-0.210937 1.64063,-0.304687 0.84375,-0.09375 1.80469,-0.09375 0.51562,0 1.00781,0.140625 0.49219,0.140625 0.9375,0.375 0.46875,0.210937 0.91406,0.492187 0.44531,0.257813 0.86719,0.515625 h -0.0234 q 0.35156,0.04687 0.65625,0.210938 0.32813,0.140625 0.67969,0.1875 0.32812,0.398437 0.84375,0.773437 0.53906,0.351563 1.03125,0.75 0.51562,0.398438 0.86719,0.867188 0.375,0.445312 0.375,1.03125 0,0.09375 -0.0234,0.1875 0,0.09375 -0.0234,0.210937 l 0.0937,-0.117187 q 0.0937,0.07031 0.16406,0.234375 0.0937,0.164062 0.16407,0.375 0.0703,0.1875 0.11718,0.398437 0.0469,0.1875 0.0703,0.304688 0.1875,0.304687 0.49218,0.492187 0.32813,0.1875 0.51563,0.515625 -0.23438,0.234375 -0.23438,0.609375 0,0.398438 0.16407,0.796875 0.16406,0.375 0.16406,0.773438 0,0.46875 -0.0469,0.914062 -0.0469,0.421875 -0.0469,0.890625 0,0.351563 -0.28125,0.539063 -0.25781,0.1875 -0.58594,0.328125 -0.30469,0.140625 -0.5625,0.28125 -0.25781,0.140625 -0.25781,0.398437 0,0.1875 -0.23438,0.1875 -0.21093,-0.02344 -0.35156,-0.02344 -1.03125,0 -2.0625,-0.257813 -1.00781,-0.257812 -2.01562,-0.257812 -1.10157,0 -2.17969,0.164062 -1.07813,0.140625 -2.17969,0.140625 -0.82031,0 -1.64062,-0.04687 -0.79688,-0.04687 -1.61719,-0.04687 -0.21094,0 -0.79688,0.09375 -0.58593,0.07031 -1.24218,0.210938 -0.63282,0.117187 -1.21875,0.304687 -0.58594,0.164063 -0.82032,0.328125 -0.0234,0.117188 -0.0234,0.328125 0,1.101563 0.63281,2.273438 0.65625,1.171875 1.71094,2.132812 1.05468,0.960938 2.36718,1.59375 1.3125,0.632813 2.64844,0.632813 0.77344,0 1.52344,0.07031 0.77344,0.04687 1.5,0.328125 0.63281,-0.304687 1.14844,-0.703125 0.53906,-0.398437 1.03125,-0.84375 0.49218,-0.445312 0.96093,-0.914062 0.46875,-0.46875 0.96094,-0.9375 0.0937,-0.09375 0.44531,-0.164063 0.375,-0.09375 0.79688,-0.140625 0.42187,-0.07031 0.79687,-0.09375 0.39844,-0.04687 0.53907,-0.04687 0.53906,0 1.00781,0.164063 0.14062,0.539062 0.14062,1.054687 z m -3.51562,-9.515625 q 0,-0.351562 -0.11719,-0.679687 -0.11719,-0.328125 -0.1875,-0.679688 -0.11719,-0.65625 -0.11719,-1.265625 0,-0.632812 -0.1875,-1.265625 h -0.0234 q 0,0.140625 -0.0937,0.28125 -0.0937,0.117188 -0.25782,0.117188 -0.28125,0 -0.53906,-0.140625 -0.25781,-0.140625 -0.44531,-0.351563 -0.89063,-0.398437 -1.61719,-0.75 -0.70312,-0.351562 -1.42969,-0.609375 -0.70312,-0.28125 -1.52343,-0.421875 -0.79688,-0.164062 -1.85157,-0.164062 -0.0937,0 -0.1875,0.02344 -0.0703,0 -0.14062,0.07031 l 0.11719,0.257812 -0.1875,0.04687 q -0.63282,0.117188 -1.05469,0.234375 -0.39844,0.09375 -0.72656,0.28125 -0.32813,0.1875 -0.65625,0.46875 -0.30469,0.257813 -0.79688,0.679688 -0.23437,0.210937 -0.51562,0.328125 -0.25782,0.09375 -0.53907,0.1875 -0.25781,0.07031 -0.51562,0.164062 -0.23438,0.09375 -0.39844,0.304688 -0.16406,0.585937 -0.49219,1.148437 -0.30468,0.539063 -0.30468,1.148438 0,0.351562 0.28125,0.632812 0.30468,0.257813 0.75,0.445313 0.46875,0.1875 1.00781,0.328125 0.5625,0.140625 1.10156,0.210937 0.53906,0.07031 0.98438,0.117188 0.46875,0.02344 0.72656,0.02344 0.89062,0 1.75781,-0.164062 0.86719,-0.1875 1.75781,-0.1875 0.91407,0 1.82813,0.09375 0.91406,0.07031 1.82812,0.07031 0.23438,0 0.70313,-0.02344 0.46875,-0.02344 0.91406,-0.117188 0.46875,-0.117187 0.79688,-0.304687 0.35156,-0.210938 0.35156,-0.539063 z"
       id="path395" />
    <path
       d="m 190.66451,38.116539 q 0,0.75 -0.16407,1.429688 -0.16406,0.65625 -0.375,1.3125 -0.21093,0.632812 -0.44531,1.3125 -0.21094,0.65625 -0.32812,1.359375 -0.21094,1.171875 -0.84375,1.945312 -0.63282,0.773438 -1.52344,1.21875 -0.89063,0.46875 -1.99219,0.679688 -1.07812,0.234375 -2.22656,0.351562 -1.14844,0.117188 -2.27344,0.164063 -1.10156,0.04687 -2.03906,0.164062 -0.35156,-0.257812 -0.58594,-0.5625 -0.23437,-0.304687 -0.44531,-0.585937 -0.21094,-0.257813 -0.46875,-0.445313 -0.25781,-0.164062 -0.67969,-0.164062 -0.14062,0 -0.23437,-0.375 -0.0703,-0.398438 -0.14063,-0.867188 -0.0703,-0.492187 -0.16406,-0.867187 -0.0703,-0.398438 -0.21094,-0.398438 -0.53906,0 -0.86719,-0.234375 -0.30468,-0.234375 -0.49218,-0.585937 -0.16407,-0.375 -0.23438,-0.820313 -0.0469,-0.445312 -0.0469,-0.867187 0,-0.328125 -0.14063,-0.609375 -0.14062,-0.28125 -0.30469,-0.539063 -0.16406,-0.28125 -0.30468,-0.5625 -0.14063,-0.28125 -0.14063,-0.585937 0,-0.351563 0.0234,-0.867188 0.0469,-0.539062 0.0703,-1.101562 0.0469,-0.5625 0.0703,-1.101563 0.0469,-0.539062 0.0469,-0.890625 0,-0.421875 0.0937,-0.703125 0.11719,-0.28125 0.25781,-0.492187 0.14063,-0.210938 0.23438,-0.375 0.11718,-0.164063 0.11718,-0.375 0,-0.28125 -0.14062,-0.46875 -0.11719,-0.1875 -0.11719,-0.375 0,-0.257813 0.16406,-0.492188 0.16407,-0.257812 0.23438,-0.515625 0.25781,-1.03125 0.25781,-2.039062 0,-0.210938 -0.0234,-0.398438 0,-0.210937 -0.0234,-0.398437 -0.53907,-0.445313 -1.19532,-0.5625 -0.65625,-0.140625 -1.3125,-0.1875 -0.65625,-0.07031 -1.26562,-0.164063 -0.60938,-0.09375 -1.03125,-0.492187 -0.35156,-0.328125 -0.63281,-0.726563 -0.28125,-0.421875 -0.75,-0.5625 -0.32813,-0.117187 -0.5625,-0.304687 -0.21094,-0.210938 -0.21094,-0.585938 0,-0.5625 0.32812,-0.84375 0.35157,-0.304687 0.82032,-0.46875 0.46875,-0.1875 0.96093,-0.304687 0.51563,-0.140625 0.86719,-0.398438 0.35156,-0.257812 0.84375,-0.257812 0.21094,0 0.39844,0.02344 0.21094,0 0.42187,0 0.58594,0 0.96094,-0.1875 0.39844,-0.210937 0.60938,-0.539062 0.23437,-0.351563 0.30468,-0.796875 0.0937,-0.445313 0.0937,-0.960938 0,-0.75 -0.0937,-1.453125 -0.0937,-0.703125 -0.0937,-1.453125 0,-0.867187 0.23438,-1.59375 0.23437,-0.726562 0.89062,-1.335937 0.14063,-0.117188 0.30469,-0.304688 0.16406,-0.1875 0.35156,-0.351562 0.1875,-0.1875 0.375,-0.304688 0.21094,-0.117187 0.42188,-0.117187 0.14062,0 0.23437,0.07031 0.11719,0.04687 0.23438,0.140625 0.51562,0.515625 0.65625,0.773438 0.16406,0.234375 0.16406,0.5625 0,0.1875 -0.0234,0.421875 0,0.210937 0,0.5625 0,0.75 0.1875,1.476562 0.1875,0.726563 0.1875,1.242188 0,0.445312 -0.1875,0.867187 -0.16406,0.398438 -0.16406,0.84375 0,0.328125 0.14063,0.609375 0.16406,0.257813 0.35156,0.515625 0.21094,0.257813 0.375,0.539063 0.16406,0.257812 0.16406,0.609375 0.23438,0.164062 1.05469,0.304687 0.82031,0.117188 1.82812,0.210938 1.00782,0.07031 2.03907,0.117187 1.03125,0.04687 1.71093,0.04687 0.60938,0 0.9375,0.09375 0.32813,0.09375 0.53907,0.210938 0.23437,0.09375 0.42187,0.210937 0.1875,0.117188 0.49219,0.140625 0.375,0.04687 0.63281,0.210938 0.28125,0.140625 0.28125,0.585937 0,0.5625 -0.30469,0.890625 -0.28125,0.328125 -0.72656,0.492188 -0.42187,0.164062 -0.91406,0.210937 -0.49219,0.02344 -0.91406,0.02344 -0.67969,0 -1.35938,-0.04687 -0.67969,-0.04687 -1.35937,-0.04687 -1.125,0 -2.03907,0.210937 -0.91406,0.210938 -1.59375,0.703125 -0.65625,0.492188 -1.03125,1.3125 -0.35156,0.796875 -0.35156,2.015625 0,1.195313 0.14063,2.34375 0.16406,1.148438 0.16406,2.34375 0,1.125 0.0234,1.804688 0.0469,0.679687 0.28125,1.148437 0.30468,0.679688 0.49218,1.546875 0.1875,0.867188 0.46875,1.640625 0.30469,0.773438 0.82032,1.3125 0.53906,0.515625 1.57031,0.515625 0.35156,0 0.9375,-0.09375 0.58594,-0.09375 1.17187,-0.28125 0.58594,-0.210937 1.00782,-0.515625 0.42187,-0.328125 0.42187,-0.796875 0,-0.398437 -0.23437,-0.796875 -0.23438,-0.421875 -0.23438,-0.890625 0,-0.328125 0.14063,-0.5625 0.16406,-0.257812 0.39843,-0.445312 0.25782,-0.210938 0.51563,-0.351563 0.28125,-0.164062 0.53906,-0.28125 0.42188,-0.539062 1.00781,-0.890625 0.60938,-0.375 1.28907,-0.375 0.46875,0 0.89062,0.164063 0.44531,0.164062 0.82031,0.421875 0.0703,0.421875 0.0703,0.867187 z"
       id="path397" />
    <path
       d="m 218.64888,42.335289 q 0,0.398438 -0.14062,0.75 -0.14063,0.351563 -0.25782,0.726563 -0.0937,0.328125 -0.14062,0.539062 -0.0234,0.210938 -0.0937,0.375 -0.0703,0.140625 -0.23438,0.28125 -0.14062,0.117188 -0.46875,0.28125 -0.70312,0.375 -1.5,0.773438 -0.77343,0.375 -1.57031,0.375 -0.67969,0 -1.28906,-0.304688 -0.58594,-0.328125 -1.10156,-0.703125 -0.49219,-0.398437 -0.91407,-0.726562 -0.39843,-0.328125 -0.67968,-0.328125 -0.30469,0 -0.53907,0.164062 -0.21093,0.164063 -0.44531,0.351563 -0.21094,0.1875 -0.49219,0.351562 -0.25781,0.164063 -0.65625,0.164063 -0.32812,0 -0.67968,0.117187 -0.35157,0.117188 -0.70313,0.28125 -0.35156,0.140625 -0.72656,0.304688 -0.35156,0.140625 -0.65625,0.234375 -1.05469,0.28125 -2.13281,0.328125 -1.05469,0.04687 -2.13282,0.04687 -0.28125,0 -0.86718,-0.02344 -0.58594,0 -1.19532,-0.117187 -0.58593,-0.09375 -1.05468,-0.328125 -0.44532,-0.234375 -0.44532,-0.65625 0,-0.09375 0.0234,-0.164063 -0.16406,0.1875 -0.375,0.304688 -0.21094,0.117187 -0.46875,0.117187 -0.375,0 -0.91406,-0.515625 -0.53906,-0.515625 -1.03125,-1.195312 -0.49219,-0.679688 -0.84375,-1.335938 -0.35156,-0.679687 -0.35156,-1.007812 0,-0.257813 0.14062,-0.46875 0.16406,-0.210938 0.16406,-0.46875 0,-0.328125 -0.0937,-0.609375 -0.0703,-0.304688 -0.0703,-0.632813 0,-0.421875 0.16406,-0.890625 0.16407,-0.492187 0.39844,-0.960937 0.23438,-0.492188 0.49219,-0.9375 0.25781,-0.46875 0.46875,-0.867188 0.23437,-0.46875 0.65625,-0.75 0.42187,-0.28125 0.89062,-0.492187 0.46875,-0.210938 0.9375,-0.421875 0.46875,-0.210938 0.82032,-0.5625 0.35156,0.398437 0.91406,0.398437 0.58594,0 1.14844,-0.164062 0.5625,-0.1875 1.14843,-0.1875 0.46875,0 0.89063,0.09375 0.44531,0.09375 0.91406,0.09375 0.51563,0 0.75,-0.117188 0.25781,-0.140625 0.63281,-0.46875 0.375,-0.328125 0.9375,-0.492187 0.58594,-0.1875 1.19532,-0.28125 0.63281,-0.117188 1.24218,-0.234375 0.63282,-0.117188 1.125,-0.328125 0.49219,-0.234375 0.79688,-0.609375 0.30469,-0.398438 0.30469,-1.078125 0,-0.75 -0.44532,-1.570313 -0.42187,-0.84375 -1.10156,-1.523437 -0.67969,-0.703125 -1.5,-1.148438 -0.82031,-0.445312 -1.57031,-0.445312 -0.0937,0 -0.1875,0.02344 -0.0937,0.02344 -0.16406,0.02344 -0.5625,0.09375 -1.26563,0.140625 -0.70312,0.02344 -1.3125,0.210937 -0.60937,0.164063 -1.03125,0.585938 -0.42187,0.398437 -0.42187,1.195312 0,0.46875 0.0703,0.9375 0.0937,0.445313 0.0937,0.914063 0,0.703125 -0.35156,1.171875 -0.32813,0.46875 -0.86719,0.75 -0.51563,0.28125 -1.14844,0.398437 -0.63281,0.09375 -1.21875,0.09375 -0.70312,0 -1.21875,-0.1875 -0.51562,-0.1875 -0.84375,-0.867187 -0.25781,-0.492188 -0.5625,-1.054688 -0.28125,-0.585937 -0.28125,-1.171875 0,-0.632812 0.21094,-1.171875 0.23437,-0.5625 0.51562,-1.078125 0.28125,-0.539062 0.53907,-1.054687 0.28125,-0.539063 0.39843,-1.148438 0.16407,-0.09375 0.44532,-0.1875 0.30468,-0.09375 0.63281,-0.1875 0.35156,-0.09375 0.65625,-0.164062 0.32812,-0.09375 0.53906,-0.164063 0.5625,-0.164062 1.07813,-0.375 0.53906,-0.234375 1.07812,-0.421875 0.5625,-0.1875 1.10156,-0.328125 0.5625,-0.140625 1.14844,-0.164062 l 0.72656,-0.02344 q 1.00782,0 2.0625,0.1875 1.05469,0.164063 2.0625,0.539063 1.00782,0.375 1.89844,0.9375 0.91406,0.539062 1.61719,1.289062 0.51562,0.5625 0.84375,1.335938 0.35156,0.75 0.53906,1.59375 0.21094,0.84375 0.28125,1.710937 0.0937,0.84375 0.0937,1.570313 0,0.984375 -0.0703,1.945312 -0.0469,0.9375 -0.0469,1.921875 0,0.9375 0.0937,1.875 0.11719,0.914063 0.25782,1.851563 0.14062,0.914062 0.23437,1.851562 0.11719,0.914063 0.11719,1.828125 0.0469,0.5625 0.14062,0.703125 0.11719,0.117188 0.23438,0.117188 0.51562,0 0.82031,-0.304688 0.32813,-0.328125 0.58594,-0.703125 0.25781,-0.398437 0.5625,-0.726562 0.30469,-0.328125 0.77344,-0.328125 0.21093,0 0.42187,0.02344 0.23438,0.02344 0.42188,0.117188 0.1875,0.07031 0.30468,0.234375 0.11719,0.140625 0.11719,0.398437 z m -7.71094,-5.835937 q 0,-0.140625 -0.0234,-0.492188 0,-0.351562 -0.0469,-0.703125 -0.0469,-0.375 -0.16406,-0.65625 -0.0937,-0.28125 -0.30469,-0.28125 -0.0469,0 -0.11719,0.04687 -0.0703,0.02344 -0.11718,0.02344 -0.89063,0.492187 -1.52344,0.820312 -0.63281,0.304688 -1.26563,0.515625 -0.60937,0.1875 -1.3125,0.257813 -0.70312,0.07031 -1.75781,0.07031 -0.14062,0 -0.77344,0.117188 -0.63281,0.117187 -1.38281,0.28125 -0.75,0.140625 -1.40625,0.304687 -0.65625,0.140625 -0.82031,0.1875 -0.30469,0.117188 -0.44531,0.234375 -0.11719,0.117188 -0.1875,0.257813 -0.0703,0.140625 -0.14063,0.304687 -0.0703,0.140625 -0.25781,0.304688 -0.23438,0.1875 -0.51563,0.304687 -0.25781,0.117188 -0.49218,0.351563 -0.35157,0.351562 -0.65625,0.9375 -0.30469,0.5625 -0.30469,1.078125 0,0.632812 0.32812,1.125 0.32813,0.492187 0.86719,0.84375 0.53906,0.351562 1.21875,0.609375 0.67969,0.257812 1.35938,0.398437 0.70312,0.140625 1.33593,0.210938 0.65625,0.07031 1.125,0.07031 0.5625,0 1.33594,-0.07031 0.77344,-0.09375 1.54688,-0.257813 0.77343,-0.1875 1.45312,-0.492187 0.67969,-0.304688 1.07813,-0.773438 0.16406,-0.1875 0.23437,-0.328125 0.0703,-0.164062 0.14063,-0.304687 0.0937,-0.164063 0.1875,-0.328125 0.11718,-0.164063 0.35156,-0.351563 0.53906,-0.445312 0.82031,-0.984375 0.30469,-0.539062 0.44531,-1.125 0.14063,-0.585937 0.16407,-1.21875 0.0234,-0.632812 0.0234,-1.289062 z"
       id="path399" />
    <path
       d="m 243.14107,41.608727 q 0,0.234375 -0.1875,0.328125 -0.16406,0.09375 -0.32813,0.1875 -0.25781,0.140625 -0.42187,0.328125 -0.16406,0.1875 -0.30469,0.421875 -0.14062,0.210937 -0.25781,0.46875 -0.11719,0.234375 -0.25781,0.445312 -0.32813,0.492188 -0.91407,0.679688 -0.5625,0.1875 -1.125,0.351562 -0.5625,0.164063 -1.03125,0.46875 -0.44531,0.28125 -0.5625,0.984375 h -0.11718 q -0.53907,0 -1.00782,0.1875 -0.44531,0.1875 -0.91406,0.398438 -0.44531,0.234375 -0.91406,0.421875 -0.46875,0.1875 -0.98438,0.1875 -0.28125,0 -0.53906,-0.09375 -0.23437,-0.09375 -0.49219,-0.210938 -0.23437,-0.117187 -0.49218,-0.210937 -0.23438,-0.09375 -0.51563,-0.09375 -0.375,0 -0.72656,0.04687 -0.35156,0.04687 -0.70313,0.04687 -0.25781,0 -0.60937,-0.07031 -0.35156,-0.04687 -0.65625,-0.1875 -0.30469,-0.140625 -0.51563,-0.351562 -0.21093,-0.234375 -0.21093,-0.5625 0,-0.117188 0.0234,-0.1875 -0.11718,0.117187 -0.25781,0.164062 -0.14062,0.02344 -0.28125,0.02344 -0.70312,0 -1.3125,-0.304688 -0.58594,-0.328125 -1.125,-0.773437 -0.51562,-0.46875 -0.98437,-0.984375 -0.44532,-0.539063 -0.89063,-0.984375 -0.53906,-0.539063 -0.84375,-1.242188 -0.28125,-0.703125 -0.67969,-1.359375 -0.84375,-1.359375 -1.03125,-2.742187 -0.1875,-1.40625 -0.1875,-2.929688 0,-0.28125 0.0234,-0.632812 0.0469,-0.375 0.16406,-0.539063 0.0937,-0.117187 0.23438,-0.164062 0.14062,-0.07031 0.25781,-0.117188 0.14063,-0.07031 0.23438,-0.140625 0.0937,-0.07031 0.0937,-0.210937 0,-0.328125 -0.16407,-0.585938 -0.16406,-0.28125 -0.16406,-0.609375 0,-0.234375 0.0937,-0.398437 0.11719,-0.164063 0.23438,-0.351563 0.1875,-0.304687 0.32812,-1.007812 0.16406,-0.726563 0.32813,-1.429688 0.1875,-0.726562 0.44531,-1.265625 0.28125,-0.5625 0.72656,-0.5625 0.32813,0 0.60938,0.09375 0.28125,0.09375 0.60937,0.09375 0.28125,0 0.53906,-0.07031 l 0.0234,-0.1875 q 0,-0.28125 -0.1875,-0.351563 -0.16406,-0.07031 -0.375,-0.09375 -0.1875,-0.02344 -0.375,-0.04687 -0.16406,-0.04687 -0.16406,-0.257812 0,-0.140625 0.11719,-0.234375 0.14062,-0.117188 0.30468,-0.1875 0.1875,-0.09375 0.375,-0.164063 0.1875,-0.07031 0.28125,-0.140625 0.23438,-0.1875 0.32813,-0.351562 0.0937,-0.1875 0.16406,-0.351563 0.0937,-0.164062 0.25781,-0.28125 0.16407,-0.117187 0.53907,-0.210937 0.32812,-0.07031 0.65625,-0.07031 0.32812,-0.02344 0.65625,-0.02344 0.32812,-0.02344 0.65625,-0.04687 0.32812,-0.02344 0.65625,-0.117188 l -0.23438,-0.234375 q 0.11719,-0.210937 0.32813,-0.328125 0.21093,-0.140625 0.46875,-0.210937 0.28125,-0.07031 0.53906,-0.07031 0.28125,-0.02344 0.49219,-0.02344 0.82031,0 1.59375,0.210937 0.77343,0.210938 1.54687,0.210938 0.32813,0 0.63281,-0.07031 0.32813,-0.09375 0.65625,-0.09375 0.49219,0 0.91407,0.257813 0.44531,0.234375 0.84375,0.445312 l 0.0937,0.02344 q 0.21093,0 0.35156,-0.164063 0.14062,-0.164062 0.28125,-0.164062 0.11719,0 0.1875,0.117187 0.0703,0.09375 0.14062,0.1875 0.1875,0.210938 0.49219,0.28125 0.32813,0.04687 0.44531,0.234375 0.16407,0.28125 0.375,0.398438 0.21094,0.09375 0.42188,0.140625 0.21094,0.04687 0.44531,0.09375 0.23438,0.04687 0.44531,0.210937 v 0.65625 q 0.46875,0.609375 0.86719,0.9375 0.42188,0.304688 0.72656,0.65625 0.32813,0.328125 0.49219,0.84375 0.1875,0.492188 0.1875,1.453125 0,1.03125 -0.1875,1.804688 -0.16406,0.773437 -0.60937,1.3125 -0.42188,0.515625 -1.14844,0.796875 -0.72656,0.257812 -1.80469,0.234375 l -1.52344,-0.02344 q -0.1875,-0.304687 -0.53906,-0.84375 -0.35156,-0.5625 -0.70312,-1.148437 -0.35157,-0.609375 -0.63282,-1.125 -0.25781,-0.539063 -0.25781,-0.820313 0,-0.351562 0.0469,-0.703125 0.0703,-0.351562 0.0703,-0.703125 -0.16406,-0.445312 -0.44531,-0.726562 -0.25782,-0.28125 -0.60938,-0.421875 -0.35156,-0.164063 -0.77344,-0.210938 -0.39843,-0.04687 -0.82031,-0.04687 -0.60937,0 -1.21875,0.09375 -0.58594,0.09375 -1.14844,0.304688 0,-0.210938 -0.11718,-0.375 -0.0937,-0.1875 -0.35157,-0.1875 -0.32812,0 -0.79687,0.257812 -0.46875,0.234375 -0.96094,0.585938 -0.46875,0.351562 -0.86719,0.75 -0.39843,0.375 -0.58593,0.65625 -0.16407,0.234375 -0.44532,0.726562 -0.28125,0.492188 -0.60937,0.984375 -0.30469,0.492188 -0.65625,0.890625 -0.32813,0.375 -0.60938,0.398438 0.0703,0.328125 0.1875,0.890625 0.11719,0.539062 0.21094,1.148437 0.0937,0.609375 0.16406,1.171875 0.0703,0.539063 0.0703,0.84375 0,0.539063 0.1875,1.007813 0.1875,0.46875 0.1875,1.007812 0,0.398438 -0.11719,0.796875 -0.0937,0.398438 -0.0937,0.796875 0,0.351563 0.0937,0.46875 0.11719,0.117188 0.44531,0.210938 0.375,0.117187 0.51563,0.398437 0.16406,0.28125 0.25781,0.585938 0.11719,0.28125 0.25781,0.492187 0.16406,0.210938 0.5625,0.210938 h 0.11719 l 0.28125,-0.02344 q 0.28125,0.375 0.32812,0.84375 0.0703,0.46875 0.35157,0.84375 0.16406,-0.02344 0.21093,-0.140625 0.0469,-0.117187 0.0937,-0.234375 0.0469,-0.117187 0.14063,-0.210937 0.11719,-0.09375 0.39844,-0.09375 0.25781,0 0.42187,0.140625 0.16406,0.140625 0.30469,0.328125 0.14062,0.164062 0.28125,0.304687 0.16406,0.140625 0.39844,0.140625 0.39843,0 0.86718,-0.140625 0.49219,-0.164062 0.98438,-0.351562 0.51562,-0.210938 1.00781,-0.421875 0.49219,-0.210938 0.89063,-0.328125 0.96093,-0.28125 1.80468,-0.820313 0.84375,-0.539062 1.35938,-1.429687 0.25781,-0.46875 0.60937,-0.867188 0.375,-0.398437 0.58594,-0.890625 0.23438,0 0.46875,-0.02344 0.23438,-0.02344 0.49219,-0.02344 0.0703,0 0.21094,0 0.16406,0 0.32812,0.02344 0.16406,0.02344 0.28125,0.07031 0.14063,0.04687 0.14063,0.117188 0,0.210937 -0.16407,0.351562 -0.14062,0.117188 -0.32812,0.234375 -0.16406,0.09375 -0.30469,0.234375 -0.14062,0.117188 -0.14062,0.351563 l 0.25781,-0.02344 q 0.28125,0 0.75,0.140625 0.46875,0.140625 0.91406,0.398438 0.46875,0.234375 0.79688,0.539062 0.35156,0.304688 0.35156,0.632813 z m -1.6875,1.3125 q 0,-0.140625 -0.11719,-0.234375 -0.0937,-0.117188 -0.23437,-0.117188 -0.16407,0 -0.28125,0.210938 -0.11719,0.210937 -0.11719,0.328125 0,0.140625 0.16406,0.140625 0.16406,-0.02344 0.21094,-0.02344 0.11719,0 0.23437,-0.04687 0.14063,-0.07031 0.14063,-0.257812 z"
       id="path401" />
    <path
       d="m 270.96138,45.218102 q 0,0.820312 -0.5625,1.289062 -0.53906,0.492188 -1.3125,0.726563 -0.77344,0.257812 -1.61719,0.328125 -0.82031,0.07031 -1.40625,0.07031 -0.77343,0 -1.28906,-0.140625 -0.49219,-0.140625 -0.86719,-0.304687 -0.375,-0.140625 -0.65625,-0.28125 -0.28125,-0.140625 -0.58593,-0.140625 -0.39844,0 -0.79688,0.140625 -0.375,0.140625 -0.77344,0.140625 -0.28125,0 -0.46875,-0.09375 -0.16406,-0.09375 -0.28125,-0.234375 -0.11718,-0.117188 -0.23437,-0.210938 -0.0937,-0.09375 -0.23438,-0.09375 -0.16406,0 -0.25781,0.117188 -0.0937,0.140625 -0.21094,0.304687 -0.11718,0.164063 -0.35156,0.28125 -0.21094,0.140625 -0.63281,0.140625 -0.49219,0 -0.96094,-0.117187 -0.46875,-0.09375 -0.96094,-0.09375 -0.49218,0 -0.98437,0.164062 -0.46875,0.1875 -0.89063,0.1875 -0.1875,0 -0.28125,-0.140625 -0.0937,-0.117187 -0.21093,-0.117187 -0.39844,0 -0.84375,0.1875 -0.42188,0.1875 -0.86719,0.1875 -0.23438,0 -0.46875,-0.07031 -0.21094,-0.04687 -0.44531,-0.04687 -0.39844,0 -0.79688,0.1875 -0.39844,0.1875 -0.98437,0.1875 -0.21094,0 -0.9375,-0.07031 -0.70313,-0.04687 -1.45313,-0.164063 -0.75,-0.117187 -1.35937,-0.304687 -0.58594,-0.164063 -0.58594,-0.375 0,-0.609375 0.21094,-1.21875 0.23437,-0.609375 0.23437,-1.171875 v -0.04687 q -0.30469,0 -0.35156,-0.328125 0.0469,-0.09375 0.14062,-0.140625 0.11719,-0.07031 0.23438,-0.09375 0.11719,-0.04687 0.21094,-0.117188 0.0937,-0.07031 0.0937,-0.210937 v -0.09375 q 0.9375,0.09375 1.82812,0.117187 0.91406,0.02344 1.89844,0.02344 0.91406,0 2.01562,-0.04687 1.125,-0.07031 2.0625,-0.351563 0.96094,-0.28125 1.59375,-0.84375 0.65625,-0.585937 0.65625,-1.617187 v -0.164063 -0.375 q -0.11718,-2.578125 -0.25781,-5.0625 -0.11719,-2.507812 -0.11719,-5.085937 0,-0.679688 -0.11718,-1.3125 -0.0937,-0.65625 -0.0937,-1.3125 0,-0.820313 0.28125,-1.640625 0.30468,-0.820313 0.9375,-1.382813 -0.0234,-0.140625 -0.11719,-0.1875 -0.0937,-0.07031 -0.23438,-0.09375 -0.14062,-0.02344 -0.28125,-0.04687 -0.11718,-0.02344 -0.21093,-0.07031 -0.14063,-0.07031 -0.1875,-0.328125 -0.0469,-0.257813 -0.0937,-0.5625 -0.0234,-0.304688 -0.0703,-0.585938 -0.0234,-0.304687 -0.14062,-0.46875 0.0703,-0.679687 0.23437,-1.335937 0.16407,-0.65625 0.16407,-1.335938 0,-0.492187 -0.14063,-0.773437 -0.11719,-0.28125 -0.28125,-0.46875 -0.16406,-0.1875 -0.30469,-0.328125 -0.11718,-0.164063 -0.11718,-0.398438 0,-0.1875 0.11718,-0.351562 l -0.1875,-0.02344 q -0.23437,0 -0.35156,0.117188 -0.11719,0.117187 -0.23437,0.257812 -0.0937,0.140625 -0.21094,0.257813 -0.11719,0.117187 -0.32813,0.117187 -0.16406,0 -0.375,-0.07031 -0.39843,0.117187 -0.75,0.117187 -0.82031,0 -1.64062,-0.210937 -0.79688,-0.234375 -1.61719,-0.234375 -0.44531,0 -0.86719,0.04687 -0.42187,0.02344 -0.84375,0.02344 -0.60937,0 -1.21875,-0.140625 -0.60937,-0.140625 -1.07812,-0.609375 v -0.28125 q 0,-1.242187 0.82031,-1.875 0.84375,-0.632812 2.03906,-0.632812 0.82032,0 1.61719,0.210937 0.79688,0.210938 1.61719,0.210938 0.44531,0 0.9375,-0.09375 0.49219,-0.09375 1.00781,-0.210938 0.51563,-0.117187 1.03125,-0.210937 0.53906,-0.09375 1.05469,-0.09375 0.79687,0 1.5,0.351562 0.70312,0.328125 1.40625,0.632813 l -0.0234,0.1875 q 0,0.210937 0.0937,0.398437 0.11719,0.164063 0.25781,0.351563 0.14063,0.164062 0.23438,0.351562 0.11719,0.164063 0.11719,0.375 0,0.210938 -0.0703,0.421875 -0.0469,0.1875 -0.0469,0.398438 0,0.515625 0.1875,0.984375 0.21094,0.46875 0.21094,1.007812 0,0.5625 -0.14063,1.101563 -0.11719,0.539062 -0.11719,1.101562 0,0.679688 0.16407,1.359375 0.16406,0.679688 0.16406,1.359375 0,0.5625 -0.1875,1.101563 -0.16406,0.539062 -0.16406,1.078125 0,0.398437 0.0937,0.796875 0.11718,0.375 0.25781,0.75 0.14062,0.375 0.23437,0.773437 0.11719,0.375 0.11719,0.796875 v 0.46875 q 0,0.375 -0.0703,0.726563 -0.0469,0.328125 -0.30469,0.632812 0.11719,0.445313 0.23438,0.960938 0.14062,0.515625 0.14062,0.984375 0,0.234375 -0.0469,0.515625 -0.0234,0.257812 -0.11719,0.539062 -0.0703,0.257813 -0.21094,0.492188 -0.14062,0.210937 -0.32812,0.351562 0.30468,0.890625 0.39843,1.804688 0.0937,0.914062 0.14063,1.828125 0.0234,0.28125 0.0937,0.726562 0.0703,0.445313 0.14062,0.890625 0.0703,0.421875 0.11719,0.796875 0.0703,0.351563 0.0703,0.492188 0,0.398437 -0.14062,0.773437 -0.14063,0.375 -0.14063,0.773438 0,0.304687 0.14063,0.65625 0.14062,0.328125 0.51562,0.328125 0.28125,0 0.46875,-0.117188 0.21094,-0.140625 0.44532,-0.28125 0.23437,-0.164062 0.53906,-0.28125 0.32812,-0.140625 0.86719,-0.140625 0.60937,0 1.14843,0.164063 0.53907,0.164062 1.14844,0.164062 0.44531,0 0.89063,-0.07031 0.46875,-0.09375 0.89062,-0.1875 0.44531,-0.117188 0.89063,-0.210938 0.44531,-0.09375 0.91406,-0.09375 0.9375,0 1.57031,0.539063 0.65625,0.539062 0.65625,1.59375 z M 257.50826,16.038414 q -0.0937,-0.09375 -0.23438,-0.1875 -0.11719,-0.09375 -0.28125,-0.09375 -0.11719,0 -0.21094,0.117188 -0.0703,0.09375 -0.0703,0.210937 l 0.11719,0.28125 q 0.0937,0.04687 0.14062,0.04687 0.1875,0 0.30469,-0.117187 0.14063,-0.140625 0.23438,-0.257813 z m 1.40625,6.515625 q 0,-0.1875 -0.11719,-0.375 -0.0937,-0.210937 -0.32813,-0.210937 -0.0703,0 -0.16406,0.02344 -0.0703,0.02344 -0.11719,0.04687 v 1.007813 q 0.1875,0.09375 0.28125,0.09375 0.23438,0 0.32813,-0.1875 0.11719,-0.210938 0.11719,-0.398438 z"
       id="path403" />
    <path
       d="m 297.16451,36.171227 q 0,0.328125 -0.11719,0.632812 -0.0937,0.28125 -0.23438,0.492188 -0.11718,0.210937 -0.23437,0.351562 -0.0937,0.140625 -0.0937,0.164063 0,0.234375 0.14062,0.492187 0.16407,0.257813 0.16407,0.5625 0,0.140625 -0.11719,0.1875 -0.0937,0.04687 -0.21094,0.04687 -0.21094,0 -0.35156,-0.04687 0.0234,0.445313 0.0703,0.867188 0.0703,0.421875 0.0703,0.867187 0,0.679688 -0.14062,0.890625 -0.11719,0.1875 -0.25781,0.234375 -0.14063,0.04687 -0.28125,0.117188 -0.11719,0.04687 -0.11719,0.421875 0,0.210937 -0.30469,0.539062 -0.28125,0.328125 -0.70312,0.65625 -0.39844,0.328125 -0.84375,0.5625 -0.42188,0.234375 -0.67969,0.234375 -0.0703,0 -0.16406,-0.04687 0,0.1875 0.0234,0.398438 0.0234,0.210937 0.0234,0.398437 0,0.304688 -0.1875,0.421875 -0.1875,0.09375 -0.42187,0.1875 -0.35157,0.164063 -0.72657,0.492188 -0.375,0.304687 -0.77343,0.632812 -0.39844,0.328125 -0.82032,0.5625 -0.39843,0.257813 -0.84375,0.257813 -0.375,0 -0.70312,-0.1875 -0.30469,-0.1875 -0.72656,-0.1875 -0.375,0 -0.63282,0.09375 -0.25781,0.117187 -0.49218,0.234375 -0.21094,0.140625 -0.44532,0.234375 -0.23437,0.117187 -0.53906,0.117187 -0.60937,0 -1.21875,-0.328125 -0.60937,-0.304687 -1.17187,-0.492187 -0.32813,-0.117188 -0.70313,-0.1875 -0.375,-0.04687 -0.72656,-0.117188 -0.35156,-0.07031 -0.67969,-0.234375 -0.30469,-0.140625 -0.53906,-0.421875 -0.49219,-0.609375 -1.14844,-1.007812 -0.65625,-0.398438 -1.33594,-0.75 -0.67968,-0.351563 -1.3125,-0.726563 -0.63281,-0.398437 -1.10156,-1.03125 -0.35156,-0.492187 -0.79687,-1.054687 -0.44532,-0.585938 -0.84375,-1.21875 -0.375,-0.632813 -0.63282,-1.289063 -0.25781,-0.65625 -0.25781,-1.289062 0,-0.46875 0.0937,-0.914063 0.0937,-0.445312 0.1875,-0.890625 0.11719,-0.46875 0.21094,-0.914062 0.0937,-0.445313 0.0937,-0.914063 v -0.257812 q 0,-0.09375 -0.0703,-0.210938 -0.0703,-0.117187 -0.16407,-0.210937 -0.0703,-0.117188 -0.16406,-0.1875 -0.0703,-0.09375 -0.0937,-0.09375 -0.0469,0 -0.0469,0.02344 0.0234,-0.210937 0.11718,-0.632812 0.11719,-0.445313 0.25782,-0.890625 0.14062,-0.46875 0.28125,-0.84375 0.14062,-0.398438 0.25781,-0.515625 0.14062,-0.117188 0.25781,-0.234375 0.14063,-0.140625 0.14063,-0.351563 0,-0.210937 -0.0234,-0.398437 -0.0234,-0.210938 -0.0234,-0.421875 0,-0.28125 0.0703,-0.328125 0.0703,-0.07031 0.1875,-0.07031 0.11719,0 0.23438,-0.02344 0.11719,-0.04687 0.23437,-0.257813 0.21094,-0.421875 0.39844,-0.773437 0.21094,-0.375 0.44531,-0.679688 0.23438,-0.304687 0.53907,-0.5625 0.30468,-0.257812 0.75,-0.492187 0.375,-0.210938 0.72656,-0.515625 0.375,-0.304688 0.75,-0.609375 0.375,-0.304688 0.75,-0.515625 0.39844,-0.210938 0.84375,-0.210938 0.63281,0 1.21875,-0.210937 0.60937,-0.234375 1.21875,-0.351563 0.96094,-0.140625 1.89844,-0.257812 0.96093,-0.140625 1.94531,-0.140625 0.53906,0 1.3125,0.1875 0.77344,0.164062 1.57031,0.445312 0.82031,0.28125 1.52344,0.632813 0.72656,0.351562 1.14844,0.703125 v 0.07031 q 0,0.328125 -0.11719,0.679688 -0.11719,0.328125 -0.11719,0.65625 0,0.04687 0,0.09375 0,0.04687 0.0469,0.04687 0.39843,0 0.75,-0.09375 0.375,-0.117188 0.77343,-0.117188 0.0469,0.398438 0.35157,0.539063 0.30468,0.140625 0.60937,0.257812 0.28125,0.140625 0.51563,0.515625 0.25781,0.351563 0.46875,0.820313 0.21093,0.445312 0.39843,0.890625 0.21094,0.445312 0.39844,0.726562 0.1875,0.28125 0.32813,0.679688 0.16406,0.375 0.25781,0.796875 0.11719,0.421875 0.16406,0.84375 0.0469,0.398437 0.0469,0.75 0,0.46875 -0.1875,0.796875 -0.16407,0.304687 -0.375,0.5625 -0.21094,0.234375 -0.39844,0.46875 -0.16406,0.210937 -0.16406,0.492187 0,0.164063 0.0703,0.304688 0.0703,0.140625 0.1875,0.257812 0.0469,-0.02344 0.1875,-0.04687 0.16406,-0.02344 0.16406,-0.140625 v -0.02344 q 0,-0.1875 -0.16406,-0.351563 -0.14063,-0.164062 -0.14063,-0.398437 0,-0.04687 0.0469,-0.140625 0.0469,-0.117188 0.11719,-0.117188 0.14062,0 0.28125,0.1875 0.14062,0.164063 0.25781,0.375 0.14062,0.1875 0.21094,0.328125 0.0703,0.140625 0.0703,0.09375 l -0.0234,-0.02344 q 0.0234,0.117187 0.0234,0.210937 0.0234,0.07031 0.0234,0.164063 z m -2.34375,0.1875 q 0,-0.375 -0.28125,-0.445313 -0.28125,-0.09375 -0.63282,-0.117187 -0.35156,-0.02344 -0.70312,-0.07031 -0.32813,-0.04687 -0.44531,-0.351562 v -0.234375 q 0,-0.515625 -0.14063,-1.195313 -0.11719,-0.703125 -0.30469,-1.40625 -0.1875,-0.726562 -0.39843,-1.40625 -0.21094,-0.703125 -0.39844,-1.242187 -0.1875,-0.539063 -0.30469,-0.867188 -0.11719,-0.328125 -0.11719,-0.328125 -0.1875,0.04687 -0.30468,0.04687 -0.39844,0 -0.70313,-0.164062 -0.28125,-0.164063 -0.65625,-0.351563 -0.35156,-0.1875 -0.89062,-0.351562 -0.51563,-0.164063 -1.38282,-0.164063 -0.96093,0 -1.89843,-0.117187 -0.9375,-0.140625 -1.89844,-0.140625 -1.3125,0 -2.46094,0.609375 -1.14844,0.585937 -2.01562,1.570312 -0.86719,0.960938 -1.35938,2.179688 -0.49219,1.21875 -0.49219,2.460937 0,0.515625 0.0234,1.21875 0.0234,0.679688 0.11719,1.382813 0.0937,0.679687 0.30469,1.289062 0.21093,0.585938 0.58593,0.890625 v 0.65625 q 0.0937,0.09375 0.23438,0.117188 0.16406,0 0.30469,0 0.16406,0 0.28125,0.04687 0.11718,0.02344 0.1875,0.1875 0.30468,0.867187 0.79687,1.335937 0.49219,0.445313 1.05469,0.773438 0.5625,0.304687 1.125,0.632812 0.5625,0.304688 1.03125,0.914063 0.1875,-0.02344 0.39844,-0.02344 0.21093,-0.02344 0.39843,-0.02344 0.75,0 1.45313,0.117187 0.72656,0.09375 1.45312,0.09375 0.77344,0 1.38282,-0.398437 0.63281,-0.398438 1.07812,-1.007813 0.28125,-0.398437 0.51563,-0.679687 0.23437,-0.28125 0.46875,-0.515625 0.25781,-0.257813 0.53906,-0.46875 0.30469,-0.234375 0.70312,-0.515625 0.14063,-0.09375 0.32813,-0.234375 0.21094,-0.140625 0.39844,-0.304688 0.21093,-0.1875 0.35156,-0.351562 0.14062,-0.1875 0.14062,-0.351563 0,-0.210937 -0.0703,-0.421875 -0.0469,-0.210937 -0.0469,-0.421875 0,-0.234375 0.0703,-0.5625 0.0703,-0.328125 0.21094,-0.632812 0.16406,-0.304688 0.375,-0.492188 0.23437,-0.210937 0.5625,-0.210937 0.25781,0 0.51562,0.117187 0.25781,0.117188 0.46875,0.28125 0.0469,-0.234375 0.0469,-0.351562 z"
       id="path405" />
    <path
       d="m 328.45357,45.827477 q 0,0.328125 -0.16406,0.539062 -0.16407,0.210938 -0.42188,0.328125 -0.23437,0.117188 -0.53906,0.140625 -0.28125,0.04687 -0.53906,0.04687 -0.35157,0 -0.70313,-0.04687 -0.35156,-0.04687 -0.70312,-0.09375 -0.46875,0.164063 -1.125,0.328125 -0.63282,0.1875 -1.14844,0.1875 -0.14063,0 -0.28125,-0.04687 -0.11719,-0.04687 -0.23438,-0.04687 -0.39843,0 -0.82031,0.140625 -0.39844,0.164063 -0.79687,0.164063 -0.67969,0 -1.3125,-0.1875 -0.60938,-0.164063 -1.28907,-0.210938 -1.10156,-0.09375 -1.71093,-0.84375 -0.58594,-0.773437 -0.63282,-1.828125 0.72657,-0.445312 1.52344,-0.609375 0.82031,-0.164062 1.64063,-0.164062 0.46875,0 0.91406,0.02344 0.46875,0.02344 0.9375,0.07031 -0.0703,-1.757813 -0.30469,-3.515625 -0.23437,-1.757813 -0.23437,-3.539063 0,-0.609375 0.0234,-1.21875 0.0469,-0.609375 0.16407,-1.21875 0.11718,-0.609375 0.30468,-1.195312 0.1875,-0.609375 0.1875,-1.21875 0,-0.398438 -0.11718,-0.726563 -0.11719,-0.351562 -0.30469,-0.703125 -0.16406,-0.28125 -0.21094,-0.632812 -0.0469,-0.351563 -0.11719,-0.703125 -0.0703,-0.375 -0.21093,-0.726563 -0.14063,-0.351562 -0.46875,-0.632812 -0.30469,-0.28125 -0.86719,-0.445313 -0.5625,-0.164062 -1.47656,-0.164062 -0.28125,0 -0.84375,0.09375 -0.53907,0.07031 -1.125,0.210937 -0.5625,0.117188 -1.07813,0.304688 -0.49219,0.164062 -0.67969,0.351562 -0.11718,0.117188 -0.30468,0.328125 -0.16407,0.210938 -0.375,0.445313 -0.1875,0.210937 -0.375,0.398437 -0.1875,0.164063 -0.32813,0.1875 -0.35156,0.07031 -0.53906,0.117188 -0.16406,0.04687 -0.28125,0.140625 -0.0937,0.09375 -0.16406,0.28125 -0.0703,0.164062 -0.23438,0.492187 -0.0469,0.09375 -0.1875,0.375 -0.14062,0.257813 -0.28125,0.257813 -0.11719,0 -0.16406,-0.09375 -0.0469,-0.09375 -0.16406,-0.09375 -0.0469,0 -0.14063,0.07031 -0.0703,0.04687 -0.11719,0.09375 v 0.65625 q -0.16406,0.1875 -0.30468,0.210938 -0.11719,0 -0.21094,0.02344 -0.0703,0.02344 -0.11719,0.117188 -0.0234,0.09375 -0.0234,0.445312 0,0.257813 -0.11718,0.46875 -0.11719,0.210938 -0.25782,0.421875 -0.11718,0.210938 -0.23437,0.445313 -0.11719,0.210937 -0.11719,0.492187 0,0.46875 0.11719,0.914063 0.14062,0.421875 0.14062,0.890625 0,0.304687 -0.0937,0.515625 -0.0937,0.210937 -0.23437,0.398437 -0.11719,0.164063 -0.21094,0.328125 -0.0937,0.164063 -0.0937,0.398438 0,0.328125 0.11719,0.609375 0.14062,0.257812 0.28125,0.539062 0.14062,0.28125 0.25781,0.585938 0.14063,0.304687 0.14063,0.65625 0,0.398437 -0.0937,0.820312 -0.0937,0.398438 -0.0937,0.820313 0,0.492187 0.14062,0.773437 0.16406,0.257813 0.39844,0.398438 0.25781,0.140625 0.58594,0.210937 0.32812,0.07031 0.65625,0.210938 0.35156,0.117187 0.70312,0.351562 0.35156,0.210938 0.65625,0.65625 l 0.14063,-0.02344 q 0.39843,0 0.58593,0.328125 0.1875,0.328125 0.1875,0.679687 0,0.328125 -0.14062,0.585938 -0.14063,0.234375 -0.14063,0.632812 0,0.28125 -0.60937,0.46875 -0.60938,0.1875 -1.38281,0.28125 -0.77344,0.117188 -1.5,0.140625 -0.70313,0.04687 -0.9375,0.04687 -0.28125,0 -0.86719,-0.02344 -0.5625,0 -1.28906,-0.04687 -0.70313,-0.02344 -1.47657,-0.09375 -0.77343,-0.07031 -1.42968,-0.210938 -0.65625,-0.117187 -1.125,-0.328125 -0.44532,-0.1875 -0.5625,-0.46875 -0.11719,-0.28125 -0.23438,-0.609375 -0.11719,-0.351562 -0.11719,-0.679687 0,-0.351563 0.16407,-0.632813 0.1875,-0.28125 0.44531,-0.515625 0.35156,-0.328125 0.77344,-0.375 0.42187,-0.07031 0.82031,-0.07031 0.42187,-0.02344 0.79687,-0.07031 0.39844,-0.07031 0.67969,-0.375 0.30469,-0.304687 0.46875,-0.960937 0.1875,-0.65625 0.1875,-1.851563 0,-0.304687 -0.0469,-0.609375 -0.0469,-0.328125 -0.11719,-0.609375 -0.0703,-0.304687 -0.11719,-0.539062 -0.0469,-0.234375 -0.0469,-0.351563 0,-0.140625 0.0703,-0.304687 0.0937,-0.164063 0.1875,-0.328125 0.11719,-0.1875 0.1875,-0.398438 0.0937,-0.210937 0.0937,-0.46875 0,-0.398437 -0.16406,-0.773437 -0.14063,-0.375 -0.14063,-0.773438 0,-0.328125 0.11719,-0.632812 0.11719,-0.304688 0.11719,-0.632813 0,-0.257812 -0.14063,-0.492187 -0.14062,-0.234375 -0.14062,-0.515625 0,-0.257813 0.0937,-0.515625 0.0937,-0.28125 0.0937,-0.5625 0,-0.609375 -0.14063,-1.242188 -0.14062,-0.65625 -0.25781,-1.265625 -0.14063,-0.726562 -0.53906,-1.078125 -0.375,-0.375 -0.86719,-0.5625 -0.49219,-0.1875 -1.03125,-0.304687 -0.53906,-0.117188 -0.98438,-0.351563 -0.44531,-0.257812 -0.75,-0.703125 -0.28125,-0.46875 -0.28125,-1.359375 0,-0.609375 0.35157,-0.9375 0.375,-0.328125 0.89062,-0.46875 0.51563,-0.164062 1.07813,-0.1875 0.58593,-0.02344 1.00781,-0.02344 0.67969,0 1.33594,0.210937 0.67968,0.1875 1.35937,0.234375 0.30469,0.02344 0.58594,0.210938 0.28125,0.164062 0.51562,0.421875 0.23438,0.234375 0.375,0.539062 0.14063,0.304688 0.16407,0.609375 0,0.140625 0.0937,0.515625 0.0937,0.351563 0.21093,0.726563 0.14063,0.375 0.28125,0.679687 0.16407,0.28125 0.32813,0.28125 0.14062,-0.117187 0.1875,-0.257812 0.0703,-0.164063 0.11719,-0.304688 0.0234,-0.140625 0.30468,-0.375 0.30469,-0.234375 0.65625,-0.492187 0.375,-0.257813 0.70313,-0.492188 0.35156,-0.234375 0.49219,-0.375 0.14062,-0.164062 0.21093,-0.328125 0.0937,-0.1875 0.16407,-0.328125 0.0937,-0.164062 0.21093,-0.257812 0.14063,-0.09375 0.42188,-0.09375 h 0.11719 q 0.25781,0 0.49218,-0.210938 0.23438,-0.234375 0.60938,-0.515625 0.375,-0.28125 0.98437,-0.492187 0.60938,-0.234375 1.61719,-0.234375 0.86719,0 1.73438,0.04687 0.86718,0.02344 1.64062,0.234375 0.79688,0.210937 1.47656,0.65625 0.70313,0.445312 1.21875,1.242187 0.39844,0.632813 0.65625,0.9375 0.25782,0.304688 0.42188,0.585938 0.16406,0.28125 0.21094,0.679687 0.0703,0.398438 0.0703,1.195313 0,0.328125 0.11719,0.609375 0.11718,0.28125 0.25781,0.585937 0.16406,0.28125 0.28125,0.609375 0.11719,0.328125 0.11719,0.75 0,0.820313 -0.0937,1.640625 -0.0937,0.796875 -0.0937,1.617188 0,0.585937 -0.23438,1.148437 -0.21094,0.5625 -0.21094,1.148438 0,0.28125 0.14063,0.539062 0.14062,0.257813 0.14062,0.585938 0,0.398437 -0.0937,0.820312 -0.0937,0.398438 -0.0937,0.796875 0,0.375 0.16407,0.65625 0.1875,0.28125 0.1875,0.632813 0,0.1875 -0.0937,0.304687 -0.0703,0.117188 -0.1875,0.234375 -0.0937,0.117188 -0.1875,0.257813 -0.0703,0.117187 -0.0703,0.304687 0,0.351563 0.16407,0.726563 0.1875,0.351562 0.46875,0.65625 0.28125,0.28125 0.63281,0.46875 0.35156,0.164062 0.70312,0.164062 0.30469,0 0.51563,-0.117187 0.23437,-0.140625 0.49219,-0.140625 0.32812,0 0.58593,0.28125 0.28125,0.257812 0.46875,0.632812 0.21094,0.375 0.30469,0.773438 0.11719,0.398437 0.11719,0.65625 z m -5.0625,-8.835938 q 0,-0.234375 -0.16406,-0.445312 -0.14063,-0.234375 -0.39844,-0.234375 -0.25781,0 -0.35156,0.257812 -0.0937,0.234375 -0.0937,0.445313 0,0.257812 0.0937,0.492187 0.0937,0.234375 0.375,0.234375 0.23437,0 0.35156,-0.140625 0.14062,-0.164062 0.1875,-0.5625 z m 0.39844,4.5 q 0,-0.164062 -0.14063,-0.257812 -0.11719,-0.117188 -0.25781,-0.1875 -0.0469,0.140625 -0.16406,0.28125 -0.11719,0.140625 -0.23438,0.304687 -0.11719,0.164063 -0.23437,0.328125 -0.0937,0.164063 -0.0937,0.328125 0,0.1875 0.11718,0.28125 0.11719,0.09375 0.28125,0.164063 0.0234,-0.140625 0.14063,-0.28125 0.14062,-0.140625 0.25781,-0.304688 0.11719,-0.164062 0.21094,-0.304687 0.11719,-0.164063 0.11719,-0.351563 z m -15.58594,-5.039062 q 0,-0.164063 -0.0703,-0.398438 -0.0469,-0.234375 -0.16407,-0.445312 -0.0937,-0.234375 -0.25781,-0.375 -0.14062,-0.164063 -0.35156,-0.164063 -0.25781,0 -0.44531,0.164063 -0.1875,0.140625 -0.46875,0.140625 h -0.0937 q -0.0703,0.257812 -0.0703,0.492187 l 0.0234,0.140625 0.0234,-0.07031 q 0.0703,0.257812 0.28125,0.398437 0.21094,0.140625 0.44531,0.257813 0.25781,0.09375 0.51563,0.1875 0.25781,0.09375 0.44531,0.257812 0.1875,-0.210937 0.1875,-0.585937 z"
       id="path407" />
    <path
       d="m 355.52388,36.171227 q 0,0.328125 -0.11719,0.632812 -0.0937,0.28125 -0.23437,0.492188 -0.11719,0.210937 -0.23438,0.351562 -0.0937,0.140625 -0.0937,0.164063 0,0.234375 0.14063,0.492187 0.16406,0.257813 0.16406,0.5625 0,0.140625 -0.11719,0.1875 -0.0937,0.04687 -0.21093,0.04687 -0.21094,0 -0.35157,-0.04687 0.0234,0.445313 0.0703,0.867188 0.0703,0.421875 0.0703,0.867187 0,0.679688 -0.14063,0.890625 -0.11718,0.1875 -0.25781,0.234375 -0.14062,0.04687 -0.28125,0.117188 -0.11719,0.04687 -0.11719,0.421875 0,0.210937 -0.30468,0.539062 -0.28125,0.328125 -0.70313,0.65625 -0.39844,0.328125 -0.84375,0.5625 -0.42187,0.234375 -0.67969,0.234375 -0.0703,0 -0.16406,-0.04687 0,0.1875 0.0234,0.398438 0.0234,0.210937 0.0234,0.398437 0,0.304688 -0.1875,0.421875 -0.1875,0.09375 -0.42188,0.1875 -0.35156,0.164063 -0.72656,0.492188 -0.375,0.304687 -0.77344,0.632812 -0.39844,0.328125 -0.82031,0.5625 -0.39844,0.257813 -0.84375,0.257813 -0.375,0 -0.70313,-0.1875 -0.30468,-0.1875 -0.72656,-0.1875 -0.375,0 -0.63281,0.09375 -0.25781,0.117187 -0.49219,0.234375 -0.21094,0.140625 -0.44531,0.234375 -0.23438,0.117187 -0.53906,0.117187 -0.60938,0 -1.21875,-0.328125 -0.60938,-0.304687 -1.17188,-0.492187 -0.32812,-0.117188 -0.70312,-0.1875 -0.375,-0.04687 -0.72657,-0.117188 -0.35156,-0.07031 -0.67968,-0.234375 -0.30469,-0.140625 -0.53907,-0.421875 -0.49218,-0.609375 -1.14843,-1.007812 -0.65625,-0.398438 -1.33594,-0.75 -0.67969,-0.351563 -1.3125,-0.726563 -0.63281,-0.398437 -1.10156,-1.03125 -0.35157,-0.492187 -0.79688,-1.054687 -0.44531,-0.585938 -0.84375,-1.21875 -0.375,-0.632813 -0.63281,-1.289063 -0.25781,-0.65625 -0.25781,-1.289062 0,-0.46875 0.0937,-0.914063 0.0937,-0.445312 0.1875,-0.890625 0.11718,-0.46875 0.21093,-0.914062 0.0937,-0.445313 0.0937,-0.914063 v -0.257812 q 0,-0.09375 -0.0703,-0.210938 -0.0703,-0.117187 -0.16406,-0.210937 -0.0703,-0.117188 -0.16406,-0.1875 -0.0703,-0.09375 -0.0937,-0.09375 -0.0469,0 -0.0469,0.02344 0.0234,-0.210937 0.11719,-0.632812 0.11719,-0.445313 0.25781,-0.890625 0.14063,-0.46875 0.28125,-0.84375 0.14063,-0.398438 0.25781,-0.515625 0.14063,-0.117188 0.25782,-0.234375 0.14062,-0.140625 0.14062,-0.351563 0,-0.210937 -0.0234,-0.398437 -0.0234,-0.210938 -0.0234,-0.421875 0,-0.28125 0.0703,-0.328125 0.0703,-0.07031 0.1875,-0.07031 0.11719,0 0.23437,-0.02344 0.11719,-0.04687 0.23438,-0.257813 0.21094,-0.421875 0.39844,-0.773437 0.21093,-0.375 0.44531,-0.679688 0.23437,-0.304687 0.53906,-0.5625 0.30469,-0.257812 0.75,-0.492187 0.375,-0.210938 0.72656,-0.515625 0.375,-0.304688 0.75,-0.609375 0.375,-0.304688 0.75,-0.515625 0.39844,-0.210938 0.84375,-0.210938 0.63282,0 1.21875,-0.210937 0.60938,-0.234375 1.21875,-0.351563 0.96094,-0.140625 1.89844,-0.257812 0.96094,-0.140625 1.94531,-0.140625 0.53907,0 1.3125,0.1875 0.77344,0.164062 1.57032,0.445312 0.82031,0.28125 1.52343,0.632813 0.72657,0.351562 1.14844,0.703125 v 0.07031 q 0,0.328125 -0.11719,0.679688 -0.11718,0.328125 -0.11718,0.65625 0,0.04687 0,0.09375 0,0.04687 0.0469,0.04687 0.39844,0 0.75,-0.09375 0.375,-0.117188 0.77344,-0.117188 0.0469,0.398438 0.35156,0.539063 0.30469,0.140625 0.60938,0.257812 0.28125,0.140625 0.51562,0.515625 0.25781,0.351563 0.46875,0.820313 0.21094,0.445312 0.39844,0.890625 0.21094,0.445312 0.39844,0.726562 0.1875,0.28125 0.32812,0.679688 0.16406,0.375 0.25781,0.796875 0.11719,0.421875 0.16407,0.84375 0.0469,0.398437 0.0469,0.75 0,0.46875 -0.1875,0.796875 -0.16406,0.304687 -0.375,0.5625 -0.21094,0.234375 -0.39844,0.46875 -0.16406,0.210937 -0.16406,0.492187 0,0.164063 0.0703,0.304688 0.0703,0.140625 0.1875,0.257812 0.0469,-0.02344 0.1875,-0.04687 0.16407,-0.02344 0.16407,-0.140625 v -0.02344 q 0,-0.1875 -0.16407,-0.351563 -0.14062,-0.164062 -0.14062,-0.398437 0,-0.04687 0.0469,-0.140625 0.0469,-0.117188 0.11719,-0.117188 0.14063,0 0.28125,0.1875 0.14063,0.164063 0.25781,0.375 0.14063,0.1875 0.21094,0.328125 0.0703,0.140625 0.0703,0.09375 l -0.0234,-0.02344 q 0.0234,0.117187 0.0234,0.210937 0.0234,0.07031 0.0234,0.164063 z m -2.34375,0.1875 q 0,-0.375 -0.28125,-0.445313 -0.28125,-0.09375 -0.63281,-0.117187 -0.35156,-0.02344 -0.70313,-0.07031 -0.32812,-0.04687 -0.44531,-0.351562 v -0.234375 q 0,-0.515625 -0.14062,-1.195313 -0.11719,-0.703125 -0.30469,-1.40625 -0.1875,-0.726562 -0.39844,-1.40625 -0.21094,-0.703125 -0.39844,-1.242187 -0.1875,-0.539063 -0.30468,-0.867188 -0.11719,-0.328125 -0.11719,-0.328125 -0.1875,0.04687 -0.30469,0.04687 -0.39844,0 -0.70312,-0.164062 -0.28125,-0.164063 -0.65625,-0.351563 -0.35157,-0.1875 -0.89063,-0.351562 -0.51562,-0.164063 -1.38281,-0.164063 -0.96094,0 -1.89844,-0.117187 -0.9375,-0.140625 -1.89844,-0.140625 -1.3125,0 -2.46093,0.609375 -1.14844,0.585937 -2.01563,1.570312 -0.86719,0.960938 -1.35937,2.179688 -0.49219,1.21875 -0.49219,2.460937 0,0.515625 0.0234,1.21875 0.0234,0.679688 0.11718,1.382813 0.0937,0.679687 0.30469,1.289062 0.21094,0.585938 0.58594,0.890625 v 0.65625 q 0.0937,0.09375 0.23437,0.117188 0.16407,0 0.30469,0 0.16406,0 0.28125,0.04687 0.11719,0.02344 0.1875,0.1875 0.30469,0.867187 0.79688,1.335937 0.49218,0.445313 1.05468,0.773438 0.5625,0.304687 1.125,0.632812 0.5625,0.304688 1.03125,0.914063 0.1875,-0.02344 0.39844,-0.02344 0.21094,-0.02344 0.39844,-0.02344 0.75,0 1.45312,0.117187 0.72657,0.09375 1.45313,0.09375 0.77344,0 1.38281,-0.398437 0.63281,-0.398438 1.07813,-1.007813 0.28125,-0.398437 0.51562,-0.679687 0.23438,-0.28125 0.46875,-0.515625 0.25781,-0.257813 0.53906,-0.46875 0.30469,-0.234375 0.70313,-0.515625 0.14062,-0.09375 0.32812,-0.234375 0.21094,-0.140625 0.39844,-0.304688 0.21094,-0.1875 0.35156,-0.351562 0.14063,-0.1875 0.14063,-0.351563 0,-0.210937 -0.0703,-0.421875 -0.0469,-0.210937 -0.0469,-0.421875 0,-0.234375 0.0703,-0.5625 0.0703,-0.328125 0.21094,-0.632812 0.16406,-0.304688 0.375,-0.492188 0.23438,-0.210937 0.5625,-0.210937 0.25781,0 0.51563,0.117187 0.25781,0.117188 0.46875,0.28125 0.0469,-0.234375 0.0469,-0.351562 z"
       id="path409" />
    <path
       d="m 380.88326,38.116539 q 0,0.75 -0.16407,1.429688 -0.16406,0.65625 -0.375,1.3125 -0.21093,0.632812 -0.44531,1.3125 -0.21094,0.65625 -0.32812,1.359375 -0.21094,1.171875 -0.84375,1.945312 -0.63282,0.773438 -1.52344,1.21875 -0.89063,0.46875 -1.99219,0.679688 -1.07812,0.234375 -2.22656,0.351562 -1.14844,0.117188 -2.27344,0.164063 -1.10156,0.04687 -2.03906,0.164062 -0.35156,-0.257812 -0.58594,-0.5625 -0.23437,-0.304687 -0.44531,-0.585937 -0.21094,-0.257813 -0.46875,-0.445313 -0.25781,-0.164062 -0.67969,-0.164062 -0.14062,0 -0.23437,-0.375 -0.0703,-0.398438 -0.14063,-0.867188 -0.0703,-0.492187 -0.16406,-0.867187 -0.0703,-0.398438 -0.21094,-0.398438 -0.53906,0 -0.86719,-0.234375 -0.30468,-0.234375 -0.49218,-0.585937 -0.16407,-0.375 -0.23438,-0.820313 -0.0469,-0.445312 -0.0469,-0.867187 0,-0.328125 -0.14063,-0.609375 -0.14062,-0.28125 -0.30469,-0.539063 -0.16406,-0.28125 -0.30468,-0.5625 -0.14063,-0.28125 -0.14063,-0.585937 0,-0.351563 0.0234,-0.867188 0.0469,-0.539062 0.0703,-1.101562 0.0469,-0.5625 0.0703,-1.101563 0.0469,-0.539062 0.0469,-0.890625 0,-0.421875 0.0937,-0.703125 0.11719,-0.28125 0.25781,-0.492187 0.14063,-0.210938 0.23438,-0.375 0.11718,-0.164063 0.11718,-0.375 0,-0.28125 -0.14062,-0.46875 -0.11719,-0.1875 -0.11719,-0.375 0,-0.257813 0.16406,-0.492188 0.16407,-0.257812 0.23438,-0.515625 0.25781,-1.03125 0.25781,-2.039062 0,-0.210938 -0.0234,-0.398438 0,-0.210937 -0.0234,-0.398437 -0.53907,-0.445313 -1.19532,-0.5625 -0.65625,-0.140625 -1.3125,-0.1875 -0.65625,-0.07031 -1.26562,-0.164063 -0.60938,-0.09375 -1.03125,-0.492187 -0.35156,-0.328125 -0.63281,-0.726563 -0.28125,-0.421875 -0.75,-0.5625 -0.32813,-0.117187 -0.5625,-0.304687 -0.21094,-0.210938 -0.21094,-0.585938 0,-0.5625 0.32812,-0.84375 0.35157,-0.304687 0.82032,-0.46875 0.46875,-0.1875 0.96093,-0.304687 0.51563,-0.140625 0.86719,-0.398438 0.35156,-0.257812 0.84375,-0.257812 0.21094,0 0.39844,0.02344 0.21094,0 0.42187,0 0.58594,0 0.96094,-0.1875 0.39844,-0.210937 0.60938,-0.539062 0.23437,-0.351563 0.30468,-0.796875 0.0937,-0.445313 0.0937,-0.960938 0,-0.75 -0.0937,-1.453125 -0.0937,-0.703125 -0.0937,-1.453125 0,-0.867187 0.23438,-1.59375 0.23437,-0.726562 0.89062,-1.335937 0.14063,-0.117188 0.30469,-0.304688 0.16406,-0.1875 0.35156,-0.351562 0.1875,-0.1875 0.375,-0.304688 0.21094,-0.117187 0.42188,-0.117187 0.14062,0 0.23437,0.07031 0.11719,0.04687 0.23438,0.140625 0.51562,0.515625 0.65625,0.773438 0.16406,0.234375 0.16406,0.5625 0,0.1875 -0.0234,0.421875 0,0.210937 0,0.5625 0,0.75 0.1875,1.476562 0.1875,0.726563 0.1875,1.242188 0,0.445312 -0.1875,0.867187 -0.16406,0.398438 -0.16406,0.84375 0,0.328125 0.14063,0.609375 0.16406,0.257813 0.35156,0.515625 0.21094,0.257813 0.375,0.539063 0.16406,0.257812 0.16406,0.609375 0.23438,0.164062 1.05469,0.304687 0.82031,0.117188 1.82812,0.210938 1.00782,0.07031 2.03907,0.117187 1.03125,0.04687 1.71093,0.04687 0.60938,0 0.9375,0.09375 0.32813,0.09375 0.53907,0.210938 0.23437,0.09375 0.42187,0.210937 0.1875,0.117188 0.49219,0.140625 0.375,0.04687 0.63281,0.210938 0.28125,0.140625 0.28125,0.585937 0,0.5625 -0.30469,0.890625 -0.28125,0.328125 -0.72656,0.492188 -0.42187,0.164062 -0.91406,0.210937 -0.49219,0.02344 -0.91406,0.02344 -0.67969,0 -1.35938,-0.04687 -0.67969,-0.04687 -1.35937,-0.04687 -1.125,0 -2.03907,0.210937 -0.91406,0.210938 -1.59375,0.703125 -0.65625,0.492188 -1.03125,1.3125 -0.35156,0.796875 -0.35156,2.015625 0,1.195313 0.14063,2.34375 0.16406,1.148438 0.16406,2.34375 0,1.125 0.0234,1.804688 0.0469,0.679687 0.28125,1.148437 0.30468,0.679688 0.49218,1.546875 0.1875,0.867188 0.46875,1.640625 0.30469,0.773438 0.82032,1.3125 0.53906,0.515625 1.57031,0.515625 0.35156,0 0.9375,-0.09375 0.58594,-0.09375 1.17187,-0.28125 0.58594,-0.210937 1.00782,-0.515625 0.42187,-0.328125 0.42187,-0.796875 0,-0.398437 -0.23437,-0.796875 -0.23438,-0.421875 -0.23438,-0.890625 0,-0.328125 0.14063,-0.5625 0.16406,-0.257812 0.39843,-0.445312 0.25782,-0.210938 0.51563,-0.351563 0.28125,-0.164062 0.53906,-0.28125 0.42188,-0.539062 1.00781,-0.890625 0.60938,-0.375 1.28907,-0.375 0.46875,0 0.89062,0.164063 0.44531,0.164062 0.82031,0.421875 0.0703,0.421875 0.0703,0.867187 z"
       id="path411" />
    <path
       d="m 410.55513,25.061852 q 0,0.28125 -0.14062,0.609375 -0.14063,0.304687 -0.375,0.585937 -0.21094,0.257813 -0.49219,0.46875 -0.28125,0.210938 -0.53906,0.304688 -0.42188,0.140625 -1.05469,0.1875 -0.60938,0.04687 -1.19531,0.164062 -0.5625,0.117188 -0.98438,0.421875 -0.39844,0.28125 -0.39844,0.914063 0,0.375 -0.0469,0.492187 -0.0469,0.09375 -0.23438,0.09375 -0.0469,0 -0.14062,0 -0.0703,-0.02344 -0.16406,-0.02344 l -0.21094,0.117187 q -0.32813,0.796875 -0.39844,1.664063 -0.0469,0.867187 -0.28125,1.6875 -0.44531,0.02344 -0.72656,0.421875 -0.25781,0.398437 -0.42188,0.9375 -0.14062,0.515625 -0.25781,1.054687 -0.0937,0.539063 -0.21094,0.84375 -0.72656,1.757813 -1.5,3.445313 -0.75,1.6875 -1.61718,3.375 -0.0703,0.140625 -0.16407,0.46875 -0.0937,0.304687 -0.21093,0.632812 -0.11719,0.304688 -0.28125,0.539063 -0.14063,0.234375 -0.35157,0.234375 -0.28125,-0.117188 -0.53906,-0.28125 -0.25781,-0.1875 -0.53906,-0.210938 -0.0937,0.02344 -0.0937,0.117188 0,0.257812 0.23437,0.421875 0.25782,0.164062 0.53907,0.328125 0.30468,0.164062 0.53906,0.328125 0.25781,0.164062 0.25781,0.398437 0,0.210938 -0.16406,0.445313 -0.14063,0.234375 -0.32813,0.492187 -0.1875,0.28125 -0.35156,0.585938 -0.16406,0.304687 -0.1875,0.679687 -0.0469,0.46875 -0.28125,0.84375 -0.21094,0.375 -0.49219,0.726563 -0.25781,0.375 -0.49218,0.773437 -0.21094,0.421875 -0.28125,0.9375 -0.0469,0.398438 -0.1875,0.796875 -0.11719,0.421875 -0.32813,0.773438 -0.21094,0.351562 -0.51562,0.609375 -0.30469,0.257812 -0.72657,0.328125 -0.11718,0.703125 -0.58593,1.382812 -0.44532,0.679688 -1.10157,1.195313 -0.65625,0.539062 -1.40625,0.84375 -0.75,0.328125 -1.47656,0.328125 -0.58594,0 -1.14844,-0.164063 -0.53906,-0.164062 -1.05468,-0.421875 -0.35157,-0.164062 -0.5625,-0.1875 -0.21094,-0.02344 -0.375,-0.04687 -0.14063,-0.02344 -0.32813,-0.140625 -0.16406,-0.117187 -0.44531,-0.46875 -0.42188,-0.5625 -0.91406,-1.054687 -0.46875,-0.46875 -0.96094,-0.9375 -0.25781,-0.234375 -0.375,-0.5625 -0.11719,-0.328125 -0.21094,-0.65625 -0.0937,-0.328125 -0.25781,-0.632813 -0.14063,-0.304687 -0.49219,-0.492187 -0.11719,-0.117188 -0.11719,-0.421875 0,-0.210938 0.16407,-0.867188 0.16406,-0.65625 0.42187,-1.359375 0.25781,-0.679687 0.5625,-1.242187 0.32813,-0.539063 0.60938,-0.539063 0.1875,0 0.35156,0.04687 0.16406,0.07031 0.35156,0.07031 0.46875,0 0.91406,-0.234375 0.44532,-0.234375 0.9375,-0.234375 0.30469,0 0.44532,0.164062 0.16406,0.164063 0.23437,0.375 0.0703,0.210938 0.11719,0.375 0.0703,0.164063 0.23437,0.164063 0.11719,-0.02344 0.21094,-0.07031 0.23438,-0.09375 0.375,-0.09375 0.30469,0 0.5625,0.140625 0.25781,0.164063 0.46875,0.398438 0.21094,0.234375 0.375,0.492187 0.1875,0.28125 0.32813,0.515625 0.0703,0.117188 0.21093,0.234375 0.14063,0.140625 0.28125,0.28125 0.14063,0.140625 0.23438,0.257813 0.0937,0.140625 0.0937,0.28125 0,0.257812 -0.14063,0.46875 -0.11718,0.210937 -0.11718,0.421875 0,0.234375 0.1875,0.328125 0.21093,0.09375 0.39843,0.09375 0.44532,0 0.86719,-0.375 0.44531,-0.351563 0.84375,-0.9375 0.39844,-0.585938 0.72656,-1.3125 0.35157,-0.703125 0.60938,-1.429688 0.25781,-0.703125 0.39844,-1.335937 0.14062,-0.609375 0.14062,-0.984375 0,-0.398438 -0.1875,-1.101563 -0.1875,-0.703125 -0.49219,-1.546875 -0.30468,-0.84375 -0.67968,-1.78125 -0.375,-0.9375 -0.75,-1.804687 -0.35157,-0.867188 -0.65625,-1.59375 -0.30469,-0.75 -0.49219,-1.21875 -0.375,-0.890625 -0.67969,-1.828125 -0.28125,-0.9375 -0.65625,-1.828125 -0.21094,-0.492188 -0.60937,-1.125 -0.375,-0.65625 -0.77344,-1.335938 -0.375,-0.703125 -0.67969,-1.359375 -0.28125,-0.679687 -0.28125,-1.195312 -0.1875,0 -0.42187,-0.07031 -0.21094,-0.09375 -0.42188,-0.1875 -0.21094,-0.117187 -0.42187,-0.1875 -0.1875,-0.09375 -0.35157,-0.09375 -0.49218,0 -1.00781,0.140625 -0.51562,0.117188 -1.03125,0.117188 -0.28125,0 -0.65625,-0.04687 -0.375,-0.07031 -0.72656,-0.1875 -0.32813,-0.140625 -0.58594,-0.375 -0.23437,-0.234375 -0.23437,-0.585938 0,-0.257812 0.0703,-0.585937 0.0703,-0.328125 0.1875,-0.609375 0.14062,-0.304688 0.32812,-0.492188 0.1875,-0.210937 0.42188,-0.210937 0.35156,0 0.67969,0.234375 0.32812,0.210937 0.70312,0.210937 0.53906,0 1.05469,-0.04687 0.53906,-0.04687 1.07812,-0.04687 0.46875,0 0.91407,-0.257812 0.46875,-0.257813 0.86718,-0.46875 0.44532,-0.234375 1.26563,-0.28125 0.84375,-0.07031 1.6875,-0.07031 0.30469,0 0.96094,-0.02344 0.65625,-0.04687 1.3125,0.04687 0.67968,0.09375 1.17187,0.421875 0.51563,0.304687 0.51563,0.984375 0,0.585937 -0.25782,0.984375 -0.23437,0.375 -0.60937,0.65625 -0.35156,0.28125 -0.79688,0.515625 -0.42187,0.210937 -0.79687,0.46875 -0.35156,0.234375 -0.60938,0.5625 -0.23437,0.328125 -0.23437,0.820312 0,0.773438 0.44531,1.664063 0.44531,0.867187 0.98438,1.734375 0.53906,0.84375 1.00781,1.617187 0.46875,0.773438 0.53906,1.335938 0.0234,0.304687 0.16406,0.867187 0.14063,0.5625 0.375,1.125 0.25782,0.539063 0.58594,0.960938 0.35156,0.398437 0.75,0.398437 0.28125,0 0.49219,-0.234375 0.21094,-0.234375 0.375,-0.5625 0.16406,-0.328125 0.25781,-0.65625 0.11719,-0.351562 0.1875,-0.5625 0.21094,-0.65625 0.375,-1.3125 0.1875,-0.65625 0.58594,-1.21875 0.32812,-0.421875 0.51562,-0.867187 0.1875,-0.46875 0.39844,-0.960938 0.23438,-0.585937 0.46875,-0.914062 0.25781,-0.328125 0.44531,-0.65625 0.1875,-0.328125 0.30469,-0.796875 0.14063,-0.46875 0.14063,-1.359375 0,-0.539063 -0.23438,-0.796875 -0.23437,-0.257813 -0.58594,-0.398438 -0.32812,-0.140625 -0.72656,-0.234375 -0.39844,-0.09375 -0.75,-0.28125 -0.32812,-0.210937 -0.5625,-0.609375 -0.23437,-0.398437 -0.23437,-1.125 0,-0.609375 0.375,-0.960937 0.375,-0.375 0.91406,-0.539063 0.5625,-0.1875 1.21875,-0.234375 0.65625,-0.04687 1.21875,-0.04687 h 0.82031 q 1.03125,0 2.01563,-0.140625 1.00781,-0.140625 2.01562,-0.140625 0.30469,0 0.89063,0.164063 0.58593,0.164062 1.17187,0.375 0.58594,0.210937 0.98438,0.421875 0.42187,0.1875 0.39843,0.257812 0,-0.02344 0.14063,0.1875 0.16406,0.210938 0.16406,0.492188 z m -19.33594,27.398437 -0.35156,-0.02344 h -0.14062 q -0.39844,0 -0.63282,0.1875 -0.23437,0.210937 -0.23437,0.632812 l 0.0234,0.1875 q 0.21093,-0.04687 0.44531,-0.09375 0.23437,-0.02344 0.42187,-0.09375 0.21094,-0.07031 0.32813,-0.210937 0.14062,-0.140625 0.14062,-0.398438 v -0.09375 z"
       id="path413" />
    <path
       d="m 436.64107,35.022789 q 0,1.007813 -0.21094,1.96875 -0.21094,0.960938 -0.35156,1.945313 -0.0469,0.328125 -0.0703,0.609375 0,0.257812 -0.0469,0.515625 -0.0469,0.234375 -0.16406,0.492187 -0.11719,0.234375 -0.35156,0.492188 -0.30469,0.328125 -0.42188,0.703125 -0.11719,0.351562 -0.23437,0.75 -0.14063,0.398437 -0.32813,0.609375 -0.16406,0.1875 -0.375,0.328125 -0.1875,0.140625 -0.42187,0.28125 -0.21094,0.117187 -0.44532,0.375 -0.14062,0.164062 -0.1875,0.328125 -0.0234,0.164062 -0.0469,0.328125 -0.0234,0.140625 -0.11719,0.28125 -0.0703,0.140625 -0.30469,0.234375 -0.375,0.164062 -0.53906,0.375 -0.16406,0.1875 -0.42187,0.445312 -0.25782,0.257813 -0.67969,0.492188 -0.39844,0.257812 -0.86719,0.445312 -0.44531,0.1875 -0.91406,0.304688 -0.46875,0.117187 -0.82031,0.117187 -0.44532,0 -0.89063,-0.09375 -0.42187,-0.09375 -0.86719,-0.09375 -0.25781,0 -0.39843,0.07031 -0.11719,0.09375 -0.21094,0.1875 -0.0937,0.09375 -0.21094,0.164062 -0.0937,0.09375 -0.30469,0.09375 -0.39843,0 -1.17187,-0.328125 -0.77344,-0.304687 -1.64063,-0.703125 -0.84375,-0.375 -1.64062,-0.679687 -0.79688,-0.328125 -1.21875,-0.328125 -0.375,0 -0.60938,0.28125 -0.21093,0.257812 -0.35156,0.65625 -0.14062,0.421875 -0.21094,0.890625 -0.0469,0.492187 -0.0703,0.914062 0,0.421875 0,0.703125 0.0234,0.28125 0.0234,0.28125 0,0.234375 -0.0937,0.304688 -0.0703,0.07031 -0.21094,0.07031 -0.0937,0 -0.1875,-0.02344 -0.0937,0 -0.21094,-0.02344 0,0.28125 0.0937,0.609375 0.11719,0.328125 0.25782,0.679688 0.16406,0.375 0.30468,0.726562 0.14063,0.351563 0.21094,0.65625 0.16406,0.75 0.32813,1.078125 0.1875,0.328125 0.46875,0.445313 0.28125,0.117187 0.70312,0.09375 0.42188,0 1.07813,0.07031 0.30468,0.04687 0.65625,0.117188 0.35156,0.09375 0.63281,0.257812 0.28125,0.1875 0.46875,0.445313 0.1875,0.257812 0.1875,0.632812 0,0.773438 -0.46875,1.101563 -0.44531,0.328125 -1.14844,0.328125 -0.96094,0 -1.92187,-0.140625 -0.9375,-0.140625 -1.92188,-0.140625 -1.03125,0 -2.0625,0.117187 -1.00781,0.117188 -2.01562,0.117188 -0.25782,0 -0.72657,-0.09375 -0.44531,-0.09375 -0.91406,-0.28125 -0.44531,-0.164063 -0.79687,-0.421875 -0.32813,-0.234375 -0.32813,-0.539063 0,-0.210937 0.23438,-0.421875 0.25781,-0.1875 0.5625,-0.328125 0.32812,-0.140625 0.65625,-0.234375 0.32812,-0.07031 0.51562,-0.07031 0.42188,0 0.77344,-0.140625 0.375,-0.117188 0.72656,-0.257813 0.35156,-0.140625 0.70313,-0.28125 0.35156,-0.117187 0.75,-0.117187 0.21093,-0.890625 0.25781,-1.78125 0.0703,-0.890625 0.0703,-1.78125 0,-0.632813 -0.0234,-1.265625 0,-0.632813 0,-1.265625 0,-1.242188 0.16407,-2.460938 0.1875,-1.21875 0.1875,-2.484375 0,-0.773437 -0.0703,-1.546875 -0.0469,-0.773437 -0.0937,-1.546875 -0.0703,-0.09375 -0.16406,-0.609375 -0.0937,-0.539062 -0.1875,-1.171875 -0.0703,-0.632812 -0.11719,-1.195312 -0.0469,-0.585938 -0.0469,-0.773438 0,-0.257812 0.0703,-0.445312 0.0937,-0.210938 0.1875,-0.351563 0.0937,-0.164062 0.16406,-0.28125 0.0937,-0.117187 0.0937,-0.210937 0,-0.02344 -0.0703,-0.164063 -0.0703,-0.140625 -0.16406,-0.351562 -0.0703,-0.210938 -0.14063,-0.46875 -0.0703,-0.257813 -0.0703,-0.515625 0,-0.75 0.16406,-1.5 0.1875,-0.75 0.1875,-1.5 0,-1.007813 -0.72656,-1.757813 -0.35156,-0.351562 -0.5625,-0.539062 -0.21094,-0.1875 -0.42187,-0.257813 -0.21094,-0.09375 -0.49219,-0.117187 -0.28125,-0.04687 -0.77344,-0.117188 -0.25781,-0.02344 -0.72656,-0.140625 -0.44531,-0.140625 -0.89063,-0.328125 -0.44531,-0.1875 -0.79687,-0.445312 -0.32813,-0.257813 -0.32813,-0.5625 0,-0.398438 0.375,-0.679688 0.375,-0.304687 0.86719,-0.46875 0.51563,-0.1875 1.03125,-0.257812 0.51563,-0.09375 0.82031,-0.09375 0.32813,0 0.65625,0.07031 0.32813,0.04687 0.5625,0.28125 0.25782,-0.257812 0.63282,-0.328125 0.375,-0.09375 0.72656,-0.09375 1.00781,0 1.54687,0.304688 0.53907,0.304687 0.84375,0.679687 0.32813,0.351563 0.51563,0.65625 0.21094,0.304688 0.51562,0.304688 0.1875,0 0.35157,-0.07031 0.1875,-0.07031 0.375,-0.164062 0.49218,-0.234375 1.47656,-0.5625 0.98437,-0.351563 2.08594,-0.65625 1.10156,-0.328125 2.10937,-0.539063 1.00781,-0.210937 1.52344,-0.210937 0.25781,0 0.72656,0.140625 0.49219,0.117187 1.07813,0.328125 0.58593,0.1875 1.21875,0.46875 0.63281,0.257812 1.17187,0.539062 0.53906,0.28125 0.9375,0.5625 0.39844,0.257813 0.53906,0.46875 0.25782,0.421875 0.53907,0.726563 0.30468,0.304687 0.79687,0.46875 0.14063,0.1875 0.16406,0.398437 0.0469,0.210938 0.0469,0.445313 v 0.445312 q 0,0.46875 0.16406,0.726563 0.16406,0.257812 0.35156,0.445312 0.1875,0.164063 0.35157,0.328125 0.16406,0.140625 0.16406,0.421875 0,0.164063 -0.0937,0.304688 -0.0937,0.117187 -0.0937,0.257812 0,0.351563 0.16406,0.726563 0.16406,0.351562 0.35156,0.796875 0.1875,0.421875 0.35157,0.914062 0.16406,0.492188 0.16406,1.078125 z m -10.73438,-9.984375 q 0,-0.117187 -0.11718,-0.234375 -0.11719,-0.117187 -0.23438,-0.117187 -0.23437,0 -0.30469,0.257812 -0.0469,0.234375 -0.0469,0.421875 0,-0.04687 0.0234,-0.04687 0.0469,0 0.0703,0.02344 l -0.0937,0.04687 q 0.16406,0 0.42187,-0.04687 0.28125,-0.07031 0.28125,-0.304688 z m 7.96875,10.710938 q 0,-0.703125 -0.1875,-1.359375 -0.1875,-0.679688 -0.46875,-1.289063 -0.28125,-0.632812 -0.63281,-1.21875 -0.35156,-0.585937 -0.70312,-1.148437 -0.0937,-0.140625 -0.11719,-0.304688 -0.0234,-0.1875 -0.0234,-0.351562 0,-0.1875 -0.0469,-0.351563 -0.0234,-0.1875 -0.14063,-0.328125 -0.1875,-0.210937 -0.35156,-0.234375 -0.16406,-0.04687 -0.32813,-0.07031 -0.14062,-0.02344 -0.32812,-0.117188 -0.16406,-0.09375 -0.32813,-0.421875 -0.11718,-0.210937 -0.51562,-0.46875 -0.375,-0.257812 -0.84375,-0.492187 -0.44531,-0.234375 -0.89063,-0.375 -0.42187,-0.164063 -0.65625,-0.164063 -0.46875,0 -0.9375,0.210938 -0.44531,0.1875 -0.91406,0.1875 -0.32812,0 -0.60937,-0.117188 -0.25782,-0.117187 -0.51563,-0.234375 -0.23437,-0.140625 -0.49219,-0.257812 -0.25781,-0.117188 -0.53906,-0.117188 h -0.11719 q 0.0469,0.234375 0.0469,0.375 0,0.210938 -0.0937,0.351563 -0.0937,0.117187 -0.25781,0.210937 -0.14063,0.09375 -0.32813,0.1875 -0.16406,0.07031 -0.30469,0.164063 -0.21093,0.257812 -0.23437,0.515625 0,0.257812 -0.23438,0.257812 -0.16406,0 -0.25781,-0.04687 0,0.164063 -0.0937,0.234375 -0.0937,0.07031 -0.21094,0.117188 -0.11718,0.04687 -0.23437,0.117187 -0.11719,0.04687 -0.14063,0.1875 -0.30468,0.02344 -0.5625,0.375 -0.25781,0.328125 -0.44531,0.84375 -0.1875,0.515625 -0.32812,1.148438 -0.14063,0.632812 -0.23438,1.242187 -0.0937,0.585938 -0.14062,1.101563 -0.0469,0.492187 -0.0469,0.75 0,0.84375 0.0937,1.6875 0.11719,0.820312 0.11719,1.664062 0,0.632813 -0.0469,1.265625 -0.0234,0.632813 -0.0703,1.289063 0.58594,0.632812 1.125,1.265625 0.53906,0.632812 1.125,1.148437 0.60938,0.492188 1.33594,0.84375 0.72656,0.328125 1.6875,0.351563 0.375,0 0.75,0.09375 0.375,0.09375 0.75,0.1875 0.375,0.09375 0.72656,0.1875 0.375,0.07031 0.75,0.07031 0.35156,0 0.75,-0.140625 0.39844,-0.164062 0.77344,-0.398437 0.39844,-0.234375 0.75,-0.492188 0.35156,-0.28125 0.58594,-0.539062 0.1875,-0.210938 0.44531,-0.304688 0.28125,-0.09375 0.46875,-0.28125 0.14062,-0.140625 0.1875,-0.304687 0.0469,-0.164063 0.0703,-0.328125 0.0469,-0.164063 0.11719,-0.304688 0.0703,-0.164062 0.28125,-0.28125 0.44531,-0.234375 0.5625,-0.328125 0.11719,-0.117187 0.11719,-0.398437 v -0.445313 q 0,-0.234375 0.11718,-0.328125 0.11719,-0.117187 0.25782,-0.210937 0.14062,-0.117188 0.25781,-0.28125 0.11719,-0.1875 0.11719,-0.609375 0,-0.304688 -0.0469,-0.585938 -0.0469,-0.304687 -0.0469,-0.609375 0,-0.304687 0.0937,-0.5625 0.11718,-0.257812 0.23437,-0.492187 0.14063,-0.234375 0.23438,-0.445313 0.11718,-0.234375 0.11718,-0.492187 z"
       id="path415" />
    <path
       d="m 454.50044,17.022789 q 0,0.679688 -0.23437,1.40625 -0.21094,0.703125 -0.63281,1.3125 -0.42188,0.585938 -1.03125,0.984375 -0.58594,0.375 -1.3125,0.375 -0.49219,0 -1.21875,-0.140625 -0.72657,-0.164062 -1.40625,-0.445312 -0.65625,-0.304688 -1.14844,-0.773438 -0.46875,-0.46875 -0.46875,-1.101562 0,-0.5625 0.11719,-1.148438 0.14062,-0.609375 0.16406,-1.21875 0.23437,-0.117187 0.46875,-0.421875 0.23437,-0.304687 0.44531,-0.609375 0.23438,-0.328125 0.44531,-0.585937 0.23438,-0.257813 0.46875,-0.28125 l -0.11718,0.04687 q 0.32812,-0.140625 0.67968,-0.234375 0.375,-0.09375 0.75,-0.09375 0.49219,0 1.17188,0.257812 0.70312,0.234375 1.33594,0.632813 0.63281,0.398437 1.07812,0.9375 0.44531,0.539062 0.44531,1.101562 z m 11.34375,28.523438 q 0,0.398437 -0.16406,0.75 -0.14062,0.351562 -0.42187,0.609375 -0.25782,0.28125 -0.60938,0.445312 -0.35156,0.164063 -0.77344,0.164063 -0.16406,0 -0.21093,-0.04687 -0.0469,-0.04687 -0.16407,-0.164063 -0.32812,-0.351562 -0.79687,-0.421875 -0.46875,-0.04687 -0.98438,-0.117187 -0.49218,-0.04687 -0.96093,-0.257813 -0.44532,-0.1875 -0.72657,-0.796875 -0.1875,-0.398437 -0.39843,-0.515625 -0.21094,-0.117187 -0.65625,-0.117187 -1.03125,0 -1.96875,0.328125 -0.9375,0.328125 -1.85157,0.75 -0.91406,0.398437 -1.875,0.726562 -0.9375,0.328125 -1.94531,0.328125 -0.5625,0 -1.125,-0.117187 -0.53906,-0.09375 -1.05469,-0.328125 -0.11718,0.117187 -0.28125,0.164062 -0.14062,0.04687 -0.32812,0.04687 -0.16406,0 -0.32813,-0.02344 -0.14062,-0.02344 -0.25781,-0.02344 -0.0234,0 -0.25781,0.07031 -0.23438,0.09375 -0.28125,0.117187 l 0.14062,0.234375 q -0.14062,0.210938 -0.63281,0.398438 -0.49219,0.210937 -1.07812,0.351562 -0.5625,0.140625 -1.10157,0.234375 -0.53906,0.09375 -0.82031,0.09375 -0.75,0 -1.24219,-0.257812 -0.46875,-0.234375 -0.9375,-0.84375 -0.16406,-0.234375 -0.42187,-0.46875 -0.23438,-0.234375 -0.46875,-0.46875 -0.21094,-0.257813 -0.375,-0.539063 -0.14063,-0.28125 -0.14063,-0.585937 0,-0.351563 0.375,-0.585938 0.375,-0.234375 0.89063,-0.375 0.51562,-0.164062 1.03125,-0.210937 0.51562,-0.07031 0.79687,-0.07031 0.5625,0 1.125,0.164063 0.5625,0.140625 1.125,0.140625 0.51563,0 0.98438,-0.140625 0.46875,-0.140625 0.98437,-0.140625 0.44532,0 0.86719,0.07031 0.44531,0.04687 0.89063,0.04687 0.5625,0 1.07812,-0.1875 0.53906,-0.210937 1.00781,-0.539062 0.1875,-1.148438 0.25782,-2.296875 0.0937,-1.148438 0.0937,-2.320313 0,-1.148437 -0.1875,-2.296875 -0.1875,-1.148437 -0.1875,-2.273437 0,-0.09375 0.0469,-0.09375 0.0469,-0.02344 0.0937,-0.02344 0.0703,-0.02344 0.11719,-0.04687 0.0469,-0.04687 0.0469,-0.1875 0,-0.492187 -0.14062,-0.960937 -0.14063,-0.46875 -0.14063,-0.960938 0,-0.609375 0.16407,-1.195312 0.16406,-0.585938 0.16406,-1.195313 0,-0.421875 -0.1875,-0.84375 -0.1875,-0.421875 -0.49219,-0.75 -0.30469,-0.328125 -0.70312,-0.515625 -0.39844,-0.210937 -0.84375,-0.210937 -0.49219,0 -0.98438,0.117187 -0.46875,0.117188 -0.98437,0.28125 -0.51563,0.140625 -1.05469,0.257813 -0.51563,0.117187 -1.10156,0.117187 -0.67969,0 -1.33594,-0.09375 -0.65625,-0.09375 -1.33594,-0.210937 -0.32812,-0.04687 -0.75,-0.09375 -0.39844,-0.04687 -0.77344,-0.164063 -0.375,-0.117187 -0.63281,-0.351562 -0.25781,-0.234375 -0.25781,-0.679688 0,-0.820312 0.28125,-1.242187 0.30469,-0.445313 0.72656,-0.65625 0.44531,-0.210938 0.98438,-0.257813 0.53906,-0.04687 1.03125,-0.09375 0.89062,-0.07031 1.75781,-0.117187 0.89062,-0.07031 1.78125,-0.07031 1.10156,0 2.15625,0.140625 1.07812,0.117188 2.17969,0.117188 0.77343,0 1.47656,0.234375 0.70312,0.234375 1.21875,0.726562 0.53906,0.46875 0.84375,1.195313 0.30469,0.726562 0.30469,1.6875 0,0.632812 -0.28125,1.242187 -0.25782,0.585938 -0.67969,1.054688 0.16406,0.304687 0.32812,0.421875 0.16407,0.09375 0.30469,0.1875 0.14063,0.07031 0.23438,0.210937 0.0937,0.117188 0.0937,0.46875 0,0.1875 0.0469,0.445313 0.0703,0.234375 0.32813,0.257812 0,1.265625 -0.0234,2.507813 -0.0234,1.21875 -0.0234,2.460937 0,1.054688 0,2.109375 0.0234,1.054688 0.1875,2.109375 0.0937,0.65625 0.375,1.007813 0.28125,0.351562 1.00781,0.351562 1.05469,0 2.08594,-0.210937 1.03125,-0.234375 2.08594,-0.234375 0.60937,0 1.14844,0.304687 0.5625,0.304688 1.05468,0.65625 0.51563,0.351563 0.98438,0.65625 0.46875,0.304688 0.89062,0.304688 0.1875,0 0.30469,0.140625 0.11719,0.117187 0.16406,0.304687 0.0703,0.164063 0.0703,0.351563 0.0234,0.1875 0.0234,0.328125 z"
       id="path417" />
    <path
       d="m 488.95357,39.264977 q 0,0.304687 -0.11719,0.609375 -0.0937,0.28125 -0.23437,0.585937 -0.14063,0.28125 -0.28125,0.5625 -0.11719,0.28125 -0.16407,0.585938 -0.11718,0.632812 -0.49218,1.148437 -0.35157,0.492188 -0.82032,0.9375 -0.46875,0.445313 -0.98437,0.867188 -0.51563,0.398437 -0.91406,0.820312 -0.35157,0.351563 -0.75,0.351563 -0.23438,0 -0.44532,-0.04687 -0.21093,-0.04687 -0.44531,-0.04687 -0.32812,0 -0.53906,0.117187 -0.1875,0.117188 -0.375,0.257813 -0.16406,0.117187 -0.42188,0.234375 -0.23437,0.117187 -0.65625,0.117187 -0.30468,0 -0.58593,0.164063 -0.28125,0.164062 -0.5625,0.164062 -0.39844,0 -0.9375,-0.234375 -0.51563,-0.234375 -1.14844,-0.234375 -0.39844,0 -0.79688,0.04687 -0.39843,0.02344 -0.79687,0.02344 -0.35156,0 -0.70313,-0.09375 -0.32812,-0.117188 -0.65625,-0.234375 -0.30468,-0.140625 -0.63281,-0.234375 -0.32812,-0.117188 -0.67969,-0.117188 -0.70312,0 -1.19531,0.351563 -0.49219,0.351562 -0.89062,0.773437 -0.375,0.445313 -0.77344,0.796875 -0.375,0.351563 -0.86719,0.351563 -0.44531,0 -0.60937,-0.164063 -0.14063,-0.140625 -0.1875,-0.351562 -0.0234,-0.210938 -0.0469,-0.46875 -0.0234,-0.234375 -0.21094,-0.421875 -0.35156,-0.375 -0.46875,-0.679688 -0.11718,-0.328125 -0.11718,-0.84375 0,-1.125 0.1875,-2.179687 0.21093,-1.078125 0.21093,-2.203125 0,-0.398438 -0.0937,-0.773438 -0.0937,-0.375 -0.23437,-0.679687 -0.11719,-0.304688 -0.21094,-0.515625 -0.0937,-0.210938 -0.0937,-0.304688 0,-0.210937 0.11719,-0.445312 0.11719,-0.234375 0.25781,-0.421875 0.16406,-0.210938 0.32813,-0.328125 0.1875,-0.140625 0.30468,-0.140625 0.23438,0 0.39844,0.117187 0.1875,0.117188 0.35156,0.257813 0.1875,0.117187 0.35157,0.234375 0.1875,0.117187 0.44531,0.117187 0.0469,0 0.0703,0 0.0234,-0.02344 0.0703,-0.02344 0.32813,0.539062 0.51563,1.171875 0.1875,0.609375 0.375,1.21875 0.21094,0.585937 0.49219,1.148437 0.30468,0.539063 0.84375,0.960938 0.14062,0.117187 0.32812,0.257812 0.1875,0.140625 0.375,0.28125 0.21094,0.140625 0.39844,0.234375 0.21094,0.09375 0.375,0.09375 0.25781,0 0.49219,-0.04687 0.25781,-0.04687 0.51562,-0.04687 0.35156,0 0.35156,0.234375 0,0.04687 -0.0469,0.1875 h 0.28125 0.16406 q 0.89063,0 1.78125,-0.210937 0.89063,-0.210938 1.80469,-0.210938 0.42187,0 0.84375,0.09375 0.44531,0.07031 0.79687,0.328125 0.44532,-0.210937 0.75,-0.539062 0.30469,-0.328125 0.60938,-0.632813 0.30469,-0.328125 0.67969,-0.5625 0.375,-0.257812 0.96093,-0.28125 0.11719,-0.140625 0.11719,-0.328125 0.0234,-0.1875 0.0234,-0.351562 0,-0.1875 0.0234,-0.351563 0.0469,-0.164062 0.1875,-0.304687 0.23437,-0.210938 0.35156,-0.421875 0.14062,-0.234375 0.14062,-0.5625 0,-0.632813 -0.35156,-1.171875 -0.35156,-0.5625 -0.91406,-1.007813 -0.53906,-0.46875 -1.26563,-0.820312 -0.70312,-0.375 -1.45312,-0.632813 -0.72656,-0.257812 -1.40625,-0.375 -0.67969,-0.140625 -1.19531,-0.140625 -0.58594,0 -1.17188,0.117188 -0.5625,0.09375 -1.10156,0.351562 0,-0.515625 -0.23438,-0.679687 -0.23437,-0.164063 -0.5625,-0.234375 -0.32812,-0.07031 -0.67968,-0.1875 -0.32813,-0.140625 -0.51563,-0.585938 -0.39844,0.515625 -1.00781,0.75 -0.58594,0.234375 -1.19531,0.234375 -0.60938,0 -1.125,-0.234375 -0.51563,-0.234375 -0.9375,-0.632812 -0.39844,-0.398438 -0.65625,-0.914063 -0.23438,-0.515625 -0.25782,-1.101562 -0.0234,-0.398438 -0.16406,-0.703125 -0.14062,-0.304688 -0.30469,-0.585938 -0.16406,-0.28125 -0.30468,-0.585937 -0.11719,-0.304688 -0.11719,-0.726563 0,-1.054687 0.0937,-1.640625 0.11719,-0.609375 0.28125,-0.914062 0.16406,-0.328125 0.35156,-0.445313 0.21094,-0.140625 0.42188,-0.257812 0.21093,-0.140625 0.39843,-0.375 0.1875,-0.234375 0.30469,-0.75 0.0703,-0.351563 0.21094,-0.46875 0.14062,-0.117188 0.49219,-0.164063 0.30468,-0.04687 0.39843,-0.140625 0.0937,-0.09375 0.11719,-0.210937 0.0469,-0.117188 0.0937,-0.234375 0.0469,-0.140625 0.23438,-0.257813 0.49218,-0.328125 0.96093,-0.398437 0.49219,-0.09375 1.00782,-0.09375 0.30468,0 0.58593,0.02344 0.28125,0 0.60938,0 0.98437,0 1.92187,-0.09375 0.9375,-0.09375 1.92188,-0.09375 0.75,0 1.35937,0.164063 0.63282,0.140625 1.10157,0.328125 0.46875,0.1875 0.79687,0.351562 0.35156,0.140625 0.5625,0.140625 0.39844,0 0.75,-0.140625 0.375,-0.164062 0.77344,-0.1875 0.1875,0.164063 0.42187,0.304688 0.25782,0.117187 0.51563,0.117187 0.1875,0 0.28125,-0.117187 0.0937,-0.117188 0.11719,-0.304688 0.32812,0.09375 0.63281,0.328125 0.30469,0.234375 0.53906,0.5625 0.25781,0.304688 0.39844,0.679688 0.14062,0.351562 0.14062,0.679687 0,0.867188 -0.14062,1.734375 -0.11719,0.84375 -0.11719,1.710938 0,0.890625 0.23438,1.664062 -0.32813,0.257813 -0.72657,0.46875 -0.375,0.1875 -0.63281,0.539063 l -0.0234,-0.02344 q -0.16406,-0.140625 -0.42187,-0.351562 -0.23438,-0.234375 -0.51563,-0.445313 -0.25781,-0.210937 -0.51562,-0.351562 -0.25781,-0.164063 -0.46875,-0.164063 h -0.0469 q -0.11718,-0.07031 -0.21093,-0.164062 -0.0703,-0.09375 -0.0703,-0.234375 0,-0.234375 0.14063,-0.421875 0.14062,-0.1875 0.14062,-0.421875 0,-0.07031 -0.21093,-0.328125 -0.21094,-0.257813 -0.49219,-0.515625 -0.25781,-0.28125 -0.51563,-0.492188 -0.25781,-0.234375 -0.375,-0.257812 -0.23437,-0.04687 -0.49218,-0.164063 -0.25782,-0.117187 -0.51563,-0.234375 -0.25781,-0.117187 -0.49219,-0.210937 -0.21093,-0.09375 -0.35156,-0.09375 -0.30469,0 -0.60937,0.09375 -0.30469,0.07031 -0.63282,0.09375 h 0.0234 l -1.05469,-0.117188 q -0.77343,-0.09375 -1.52343,-0.375 -0.75,-0.28125 -1.54688,-0.28125 -0.70312,0 -1.03125,0.328125 -0.32812,0.328125 -0.53906,0.75 -0.21094,0.398438 -0.42188,0.726563 -0.21093,0.328125 -0.70312,0.328125 -0.14063,0 -0.21094,-0.02344 0.23438,0.75 0.42188,1.265625 0.21093,0.515625 0.49218,0.9375 0.28125,0.398438 0.70313,0.773438 0.42187,0.351562 1.07812,0.773437 0.0703,0.04687 0.1875,0.164063 0.14063,0.117187 0.28125,0.257812 0.14063,0.117188 0.25782,0.210938 0.14062,0.09375 0.21093,0.09375 0.39844,0 0.75,-0.1875 0.375,-0.1875 0.77344,-0.1875 0.28125,0 0.51563,0.140625 0.25781,0.117187 0.53906,0.117187 0.28125,0 0.53906,-0.09375 0.25781,-0.117187 0.5625,-0.117187 0.11719,0 0.23438,0.02344 0.14062,0.02344 0.25781,0.04687 0.70312,0.1875 1.40625,0.1875 0.70312,-0.02344 1.42969,0 0.51562,0 1.03125,0.1875 0.53906,0.1875 1.03125,0.492188 0.49218,0.28125 0.91406,0.65625 0.42187,0.375 0.72656,0.773437 0.23438,0.328125 0.51563,0.585938 0.28125,0.257812 0.53906,0.539062 0.28125,0.257813 0.49219,0.5625 0.21093,0.304688 0.30468,0.703125 0.11719,0.46875 0.30469,1.03125 0.21094,0.5625 0.21094,1.007813 z"
       id="path419" />
    <path
       d="m 514.24263,38.116539 q 0,0.75 -0.16406,1.429688 -0.16406,0.65625 -0.375,1.3125 -0.21094,0.632812 -0.44531,1.3125 -0.21094,0.65625 -0.32813,1.359375 -0.21094,1.171875 -0.84375,1.945312 -0.63281,0.773438 -1.52344,1.21875 -0.89062,0.46875 -1.99218,0.679688 -1.07813,0.234375 -2.22657,0.351562 -1.14843,0.117188 -2.27343,0.164063 -1.10157,0.04687 -2.03907,0.164062 -0.35156,-0.257812 -0.58593,-0.5625 -0.23438,-0.304687 -0.44532,-0.585937 -0.21093,-0.257813 -0.46875,-0.445313 -0.25781,-0.164062 -0.67968,-0.164062 -0.14063,0 -0.23438,-0.375 -0.0703,-0.398438 -0.14062,-0.867188 -0.0703,-0.492187 -0.16407,-0.867187 -0.0703,-0.398438 -0.21093,-0.398438 -0.53907,0 -0.86719,-0.234375 -0.30469,-0.234375 -0.49219,-0.585937 -0.16406,-0.375 -0.23437,-0.820313 -0.0469,-0.445312 -0.0469,-0.867187 0,-0.328125 -0.14062,-0.609375 -0.14063,-0.28125 -0.30469,-0.539063 -0.16406,-0.28125 -0.30469,-0.5625 -0.14062,-0.28125 -0.14062,-0.585937 0,-0.351563 0.0234,-0.867188 0.0469,-0.539062 0.0703,-1.101562 0.0469,-0.5625 0.0703,-1.101563 0.0469,-0.539062 0.0469,-0.890625 0,-0.421875 0.0937,-0.703125 0.11719,-0.28125 0.25782,-0.492187 0.14062,-0.210938 0.23437,-0.375 0.11719,-0.164063 0.11719,-0.375 0,-0.28125 -0.14063,-0.46875 -0.11718,-0.1875 -0.11718,-0.375 0,-0.257813 0.16406,-0.492188 0.16406,-0.257812 0.23437,-0.515625 0.25782,-1.03125 0.25782,-2.039062 0,-0.210938 -0.0234,-0.398438 0,-0.210937 -0.0234,-0.398437 -0.53906,-0.445313 -1.19531,-0.5625 -0.65625,-0.140625 -1.3125,-0.1875 -0.65625,-0.07031 -1.26563,-0.164063 -0.60937,-0.09375 -1.03125,-0.492187 -0.35156,-0.328125 -0.63281,-0.726563 -0.28125,-0.421875 -0.75,-0.5625 -0.32812,-0.117187 -0.5625,-0.304687 -0.21094,-0.210938 -0.21094,-0.585938 0,-0.5625 0.32813,-0.84375 0.35156,-0.304687 0.82031,-0.46875 0.46875,-0.1875 0.96094,-0.304687 0.51562,-0.140625 0.86719,-0.398438 0.35156,-0.257812 0.84375,-0.257812 0.21093,0 0.39843,0.02344 0.21094,0 0.42188,0 0.58594,0 0.96094,-0.1875 0.39843,-0.210937 0.60937,-0.539062 0.23438,-0.351563 0.30469,-0.796875 0.0937,-0.445313 0.0937,-0.960938 0,-0.75 -0.0937,-1.453125 -0.0937,-0.703125 -0.0937,-1.453125 0,-0.867187 0.23437,-1.59375 0.23438,-0.726562 0.89063,-1.335937 0.14062,-0.117188 0.30469,-0.304688 0.16406,-0.1875 0.35156,-0.351562 0.1875,-0.1875 0.375,-0.304688 0.21094,-0.117187 0.42187,-0.117187 0.14063,0 0.23438,0.07031 0.11719,0.04687 0.23437,0.140625 0.51563,0.515625 0.65625,0.773438 0.16407,0.234375 0.16407,0.5625 0,0.1875 -0.0234,0.421875 0,0.210937 0,0.5625 0,0.75 0.1875,1.476562 0.1875,0.726563 0.1875,1.242188 0,0.445312 -0.1875,0.867187 -0.16406,0.398438 -0.16406,0.84375 0,0.328125 0.14062,0.609375 0.16406,0.257813 0.35156,0.515625 0.21094,0.257813 0.375,0.539063 0.16407,0.257812 0.16407,0.609375 0.23437,0.164062 1.05468,0.304687 0.82032,0.117188 1.82813,0.210938 1.00781,0.07031 2.03906,0.117187 1.03125,0.04687 1.71094,0.04687 0.60937,0 0.9375,0.09375 0.32812,0.09375 0.53906,0.210938 0.23438,0.09375 0.42188,0.210937 0.1875,0.117188 0.49218,0.140625 0.375,0.04687 0.63282,0.210938 0.28125,0.140625 0.28125,0.585937 0,0.5625 -0.30469,0.890625 -0.28125,0.328125 -0.72656,0.492188 -0.42188,0.164062 -0.91407,0.210937 -0.49218,0.02344 -0.91406,0.02344 -0.67969,0 -1.35937,-0.04687 -0.67969,-0.04687 -1.35938,-0.04687 -1.125,0 -2.03906,0.210937 -0.91406,0.210938 -1.59375,0.703125 -0.65625,0.492188 -1.03125,1.3125 -0.35156,0.796875 -0.35156,2.015625 0,1.195313 0.14062,2.34375 0.16406,1.148438 0.16406,2.34375 0,1.125 0.0234,1.804688 0.0469,0.679687 0.28125,1.148437 0.30469,0.679688 0.49219,1.546875 0.1875,0.867188 0.46875,1.640625 0.30469,0.773438 0.82031,1.3125 0.53906,0.515625 1.57031,0.515625 0.35157,0 0.9375,-0.09375 0.58594,-0.09375 1.17188,-0.28125 0.58594,-0.210937 1.00781,-0.515625 0.42188,-0.328125 0.42188,-0.796875 0,-0.398437 -0.23438,-0.796875 -0.23437,-0.421875 -0.23437,-0.890625 0,-0.328125 0.14062,-0.5625 0.16406,-0.257812 0.39844,-0.445312 0.25781,-0.210938 0.51562,-0.351563 0.28125,-0.164062 0.53907,-0.28125 0.42187,-0.539062 1.00781,-0.890625 0.60937,-0.375 1.28906,-0.375 0.46875,0 0.89063,0.164063 0.44531,0.164062 0.82031,0.421875 0.0703,0.421875 0.0703,0.867187 z"
       id="path421" />
  </g>
</svg>
